<svg version="1.1" id="Layer_1" xmlns="http://www.w3.org/2000/svg" xmlns:xlink="http://www.w3.org/1999/xlink" x="0px" y="0px"
	 width="100%" viewBox="0 0 512 512" enable-background="new 0 0 512 512" xml:space="preserve">
<path fill="#000000" opacity="1.000000" stroke="none" 
	d="
M513.000000,180.000000 
	C513.000000,291.306274 513.000000,402.112549 513.000000,512.959412 
	C342.402039,512.959412 171.804092,512.959412 1.103063,512.959412 
	C1.103063,342.443756 1.103063,171.887421 1.103063,1.165548 
	C171.666534,1.165548 342.333252,1.165548 513.000000,1.165548 
	C513.000000,60.529209 513.000000,120.014603 513.000000,180.000000 
M358.510803,44.016384 
	C356.625702,42.131844 354.769562,40.217197 352.850220,38.368214 
	C346.289093,32.047642 336.569611,32.045456 330.073669,38.454056 
	C322.719025,45.709824 315.406830,53.010105 308.166138,60.379410 
	C303.150116,65.484505 302.176819,73.625298 306.213013,79.566559 
	C308.518402,82.960106 311.833221,85.654526 314.304565,88.955009 
	C315.351166,90.352753 315.920990,92.540581 315.780579,94.295143 
	C315.555420,97.109009 313.659546,98.411575 310.627350,98.052750 
	C308.491058,97.799934 306.300476,97.997040 304.134186,98.008186 
	C294.667938,98.056908 288.724701,102.880440 286.871277,112.240578 
	C286.206848,115.596069 285.941498,119.030579 285.417969,123.006531 
	C283.036133,123.006531 280.748322,123.006531 278.460510,123.006538 
	C198.139969,123.006691 117.819427,123.030258 37.498917,122.989967 
	C18.228153,122.980301 4.221402,137.953186 4.149514,153.702057 
	C3.829287,223.856079 3.870440,294.012878 4.110375,364.167542 
	C4.168129,381.054169 18.716024,395.060059 35.789207,395.083557 
	C77.404434,395.140839 119.019051,395.659851 160.633728,396.014343 
	C161.913864,396.025238 163.191971,396.272980 165.347870,396.504425 
	C164.327545,424.667511 163.316498,452.574585 162.286362,481.008728 
	C151.517853,481.008728 141.723724,480.978149 131.929947,481.022217 
	C127.332214,481.042877 124.277466,484.070404 124.019272,488.679352 
	C123.689804,494.560699 127.576782,497.980194 134.808746,497.983215 
	C182.634460,498.003204 230.460190,498.006866 278.285828,497.948944 
	C280.391174,497.946411 282.608307,497.601349 284.578278,496.881714 
	C289.387573,495.124908 289.268463,490.879730 288.898682,486.857849 
	C288.539795,482.955261 286.024200,481.044922 282.152222,481.028625 
	C273.653717,480.992828 265.154938,481.027374 256.656433,480.992462 
	C254.895569,480.985229 253.135437,480.801086 251.035782,480.678741 
	C249.950333,452.243286 248.885254,424.340973 247.822189,396.491699 
	C259.161469,395.958527 269.423370,395.116241 279.689636,395.059784 
	C312.350128,394.880188 345.012177,394.998657 377.673645,394.990875 
	C394.870850,394.986755 408.985382,380.941528 408.989899,363.815491 
	C409.000153,324.821716 408.993225,285.827942 408.993286,246.834152 
	C408.993286,244.726242 408.993317,242.618332 408.993317,240.509491 
	C410.328461,240.262619 410.961273,240.077469 411.603241,240.037064 
	C422.543793,239.348328 427.109894,235.499741 429.075897,224.817459 
	C429.730072,221.263031 429.477203,217.541626 430.131897,213.987335 
	C430.398102,212.542099 431.741577,210.925766 433.047577,210.180740 
	C433.826050,209.736649 435.761292,210.507797 436.691803,211.301132 
	C439.093567,213.348892 441.181030,215.759781 443.474640,217.940872 
	C449.668884,223.831238 460.380402,223.891556 466.538605,217.899002 
	C473.822906,210.810608 481.160126,203.749969 487.990143,196.237045 
	C490.129272,193.884048 491.198334,190.212769 491.892639,186.960358 
	C493.580933,179.051544 489.094299,173.641403 483.483124,169.062561 
	C479.895599,166.135086 478.536041,163.171616 482.143555,158.992371 
	C486.052399,158.992371 490.209076,159.016373 494.365417,158.987320 
	C502.627136,158.929565 509.736664,152.344208 509.924500,144.046616 
	C510.165771,133.387131 510.166077,122.713913 509.925171,112.054405 
	C509.731812,103.499542 502.634491,97.046196 493.963501,97.010277 
	C489.814453,96.993088 485.665283,97.007309 481.614471,97.007309 
	C480.777252,94.789680 480.091400,92.973038 479.290771,90.852425 
	C482.274109,87.984085 485.253967,85.310303 488.013702,82.425934 
	C493.714783,76.467323 493.918701,65.670662 488.301331,59.863552 
	C481.350800,52.678310 474.313446,45.566986 467.082214,38.666199 
	C460.193939,32.092739 449.943512,32.219025 442.868530,38.680798 
	C440.656036,40.701511 438.765686,43.104111 436.418091,44.934612 
	C435.359222,45.760269 433.361542,46.149391 432.125580,45.735012 
	C431.155792,45.409878 430.287445,43.603935 430.109619,42.351414 
	C429.784851,40.063549 430.207764,37.676754 429.962097,35.369202 
	C428.860413,25.022364 426.743530,18.076408 414.220306,16.501169 
	C403.568268,15.161291 392.528564,15.361817 381.819794,16.449711 
	C371.230225,17.525490 367.014496,23.733706 367.007355,34.580528 
	C367.005920,36.746849 367.392303,39.008930 366.887207,41.050560 
	C366.447266,42.828949 365.346893,44.998207 363.886200,45.786610 
	C362.804474,46.370499 360.676147,45.015427 358.510803,44.016384 
z"/>
<path fill="#60286E" opacity="1.000000" stroke="none" 
	d="
M358.762451,44.270248 
	C360.676147,45.015427 362.804474,46.370499 363.886200,45.786610 
	C365.346893,44.998207 366.447266,42.828949 366.887207,41.050560 
	C367.392303,39.008930 367.005920,36.746849 367.007355,34.580528 
	C367.014496,23.733706 371.230225,17.525490 381.819794,16.449711 
	C392.528564,15.361817 403.568268,15.161291 414.220306,16.501169 
	C426.743530,18.076408 428.860413,25.022364 429.962097,35.369202 
	C430.207764,37.676754 429.784851,40.063549 430.109619,42.351414 
	C430.287445,43.603935 431.155792,45.409878 432.125580,45.735012 
	C433.361542,46.149391 435.359222,45.760269 436.418091,44.934612 
	C438.765686,43.104111 440.656036,40.701511 442.868530,38.680798 
	C449.943512,32.219025 460.193939,32.092739 467.082214,38.666199 
	C474.313446,45.566986 481.350800,52.678310 488.301331,59.863552 
	C493.918701,65.670662 493.714783,76.467323 488.013702,82.425934 
	C485.253967,85.310303 482.274109,87.984085 479.290771,90.852425 
	C480.091400,92.973038 480.777252,94.789680 481.614471,97.007309 
	C485.665283,97.007309 489.814453,96.993088 493.963501,97.010277 
	C502.634491,97.046196 509.731812,103.499542 509.925171,112.054405 
	C510.166077,122.713913 510.165771,133.387131 509.924500,144.046616 
	C509.736664,152.344208 502.627136,158.929565 494.365417,158.987320 
	C490.209076,159.016373 486.052399,158.992371 482.143555,158.992371 
	C478.536041,163.171616 479.895599,166.135086 483.483124,169.062561 
	C489.094299,173.641403 493.580933,179.051544 491.892639,186.960358 
	C491.198334,190.212769 490.129272,193.884048 487.990143,196.237045 
	C481.160126,203.749969 473.822906,210.810608 466.538605,217.899002 
	C460.380402,223.891556 449.668884,223.831238 443.474640,217.940872 
	C441.181030,215.759781 439.093567,213.348892 436.691803,211.301132 
	C435.761292,210.507797 433.826050,209.736649 433.047577,210.180740 
	C431.741577,210.925766 430.398102,212.542099 430.131897,213.987335 
	C429.477203,217.541626 429.730072,221.263031 429.075897,224.817459 
	C427.109894,235.499741 422.543793,239.348328 411.603241,240.037064 
	C410.961273,240.077469 410.328461,240.262619 408.993317,240.509491 
	C408.993317,242.618332 408.993286,244.726242 408.993286,246.834152 
	C408.993225,285.827942 409.000153,324.821716 408.989899,363.815491 
	C408.985382,380.941528 394.870850,394.986755 377.673645,394.990875 
	C345.012177,394.998657 312.350128,394.880188 279.689636,395.059784 
	C269.423370,395.116241 259.161469,395.958527 247.822189,396.491699 
	C248.885254,424.340973 249.950333,452.243286 251.035782,480.678741 
	C253.135437,480.801086 254.895569,480.985229 256.656433,480.992462 
	C265.154938,481.027374 273.653717,480.992828 282.152222,481.028625 
	C286.024200,481.044922 288.539795,482.955261 288.898682,486.857849 
	C289.268463,490.879730 289.387573,495.124908 284.578278,496.881714 
	C282.608307,497.601349 280.391174,497.946411 278.285828,497.948944 
	C230.460190,498.006866 182.634460,498.003204 134.808746,497.983215 
	C127.576782,497.980194 123.689804,494.560699 124.019272,488.679352 
	C124.277466,484.070404 127.332214,481.042877 131.929947,481.022217 
	C141.723724,480.978149 151.517853,481.008728 162.286362,481.008728 
	C163.316498,452.574585 164.327545,424.667511 165.347870,396.504425 
	C163.191971,396.272980 161.913864,396.025238 160.633728,396.014343 
	C119.019051,395.659851 77.404434,395.140839 35.789207,395.083557 
	C18.716024,395.060059 4.168129,381.054169 4.110375,364.167542 
	C3.870440,294.012878 3.829287,223.856079 4.149514,153.702057 
	C4.221402,137.953186 18.228153,122.980301 37.498917,122.989967 
	C117.819427,123.030258 198.139969,123.006691 278.460510,123.006538 
	C280.748322,123.006531 283.036133,123.006531 285.417969,123.006531 
	C285.941498,119.030579 286.206848,115.596069 286.871277,112.240578 
	C288.724701,102.880440 294.667938,98.056908 304.134186,98.008186 
	C306.300476,97.997040 308.491058,97.799934 310.627350,98.052750 
	C313.659546,98.411575 315.555420,97.109009 315.780579,94.295143 
	C315.920990,92.540581 315.351166,90.352753 314.304565,88.955009 
	C311.833221,85.654526 308.518402,82.960106 306.213013,79.566559 
	C302.176819,73.625298 303.150116,65.484505 308.166138,60.379410 
	C315.406830,53.010105 322.719025,45.709824 330.073669,38.454056 
	C336.569611,32.045456 346.289093,32.047642 352.850220,38.368214 
	C354.769562,40.217197 356.625702,42.131844 358.762451,44.270248 
M334.012146,197.987427 
	C334.012146,197.987427 333.943024,197.989075 334.111542,198.504944 
	C334.411438,198.688812 334.711334,198.872681 335.012177,198.987488 
	C335.012177,198.987488 334.943085,198.989151 335.111176,199.505234 
	C335.411194,199.688995 335.711182,199.872757 336.012146,199.987488 
	C336.012146,199.987488 335.943146,199.989197 336.110962,200.505463 
	C336.411041,200.689163 336.711151,200.872864 337.012207,200.987488 
	C337.012207,200.987488 336.943146,200.989151 337.110962,201.505447 
	C337.411102,201.689178 337.711212,201.872910 338.012268,201.987457 
	C338.012268,201.987457 337.943085,201.989014 338.111237,202.505203 
	C338.411346,202.689041 338.711426,202.872879 339.012238,202.987396 
	C339.012238,202.987396 338.942963,202.988815 339.111572,203.504776 
	C339.411621,203.688782 339.711670,203.872787 339.972107,204.000900 
	C339.972107,204.000900 339.919037,204.044281 340.101868,204.548141 
	C340.908417,204.383514 341.714935,204.218903 343.113037,203.843719 
	C346.456085,200.629822 349.905518,197.517944 353.112946,194.173950 
	C356.453186,190.691437 360.073029,190.170914 364.381348,192.128052 
	C368.299347,193.907898 372.591064,195.002823 376.237274,197.198196 
	C378.982178,198.850876 380.966675,201.766541 383.240967,205.038528 
	C383.236115,209.515610 383.382782,213.999603 383.178772,218.467590 
	C383.013153,222.093933 384.146149,223.891403 388.944183,223.107407 
	C395.300690,223.083847 401.657196,223.060287 408.852325,223.078766 
	C411.865265,223.344666 413.067535,221.910873 412.998230,218.957550 
	C412.881012,213.961212 412.916718,208.961273 413.147430,203.310699 
	C415.395691,201.264191 417.375183,198.741669 419.956116,197.284348 
	C423.696106,195.172546 427.919250,193.936172 431.847198,192.132355 
	C436.148621,190.157043 439.894714,190.638901 443.247070,194.035507 
	C446.054901,196.880371 449.039337,199.564575 451.689026,202.547760 
	C454.067963,205.226074 455.887909,204.946121 458.212585,202.467361 
	C461.967407,198.463699 465.972809,194.695068 470.472168,190.544769 
	C477.037872,184.969406 477.033936,184.612106 470.333893,179.358826 
	C470.207214,179.259521 470.039795,179.212204 469.498535,178.606430 
	C466.720764,175.707596 463.942993,172.808762 461.111938,169.071793 
	C461.765167,166.065002 462.245087,163.006653 463.119904,160.065750 
	C464.009186,157.076218 465.287689,154.202438 466.767548,150.696457 
	C468.498901,144.710983 472.514160,142.415024 478.629791,142.922867 
	C482.035461,143.205673 485.493347,142.860001 489.752045,142.867661 
	C490.874817,141.603760 492.911682,140.379608 492.968689,139.069351 
	C493.285858,131.775681 493.093140,124.460960 493.138763,117.153839 
	C493.157318,114.181824 491.952393,112.771187 487.965332,113.265572 
	C485.317413,113.219994 482.634216,112.877342 480.028381,113.186424 
	C473.139465,114.003494 468.416443,111.622437 466.209412,104.024086 
	C465.198669,101.436363 463.820801,98.924553 463.266296,96.242493 
	C462.503906,92.554588 462.364624,88.737839 462.492950,84.584038 
	C465.301361,81.678055 468.109741,78.772064 471.524017,75.575493 
	C476.078308,71.412071 476.054260,70.969170 470.692047,66.362907 
	C466.377045,61.994007 461.990234,57.692844 457.777527,53.227444 
	C455.690765,51.015514 454.075317,51.070026 452.038757,53.272247 
	C449.223633,56.316391 446.164734,59.133724 443.250519,62.087940 
	C439.899597,65.484825 436.134125,65.896118 431.867828,63.988197 
	C428.086304,62.297081 424.301422,60.549229 420.374237,59.266571 
	C416.579834,58.027248 413.972473,55.903893 412.929016,51.106651 
	C412.947357,46.627644 412.819580,42.141800 413.028625,37.671711 
	C413.206604,33.865532 411.563690,32.506824 407.034271,33.017849 
	C400.680573,33.030521 394.326843,33.043198 387.139801,32.953594 
	C384.456482,32.597389 383.137268,33.573734 383.214020,36.478306 
	C383.349640,41.609131 383.277069,46.745457 383.072998,52.596630 
	C381.401764,54.530548 380.088470,57.129414 377.985565,58.261353 
	C373.468414,60.692780 368.565002,62.419838 363.780243,64.336731 
	C359.842773,65.914200 356.401276,65.253380 353.305267,62.128098 
	C349.808502,58.598263 346.053345,55.324413 341.964172,51.465271 
	C341.215088,51.629227 340.466003,51.793182 339.158447,52.279293 
	C334.756866,56.750221 330.355286,61.221149 325.400360,66.113472 
	C323.862915,67.730843 322.325500,69.348213 320.440399,71.331306 
	C322.833374,73.621407 324.902100,75.601166 327.197479,78.151848 
	C329.461670,80.434143 331.725861,82.716438 334.224609,85.437668 
	C334.404724,85.732002 334.654999,85.943245 334.967987,86.006470 
	C334.967987,86.006470 334.906311,86.028145 334.973938,86.896866 
	C334.493134,89.743637 334.293365,92.675400 333.464325,95.416847 
	C332.283173,99.322533 330.640259,103.088562 328.902771,107.582397 
	C327.202850,112.986893 323.285492,114.943130 317.900726,114.823837 
	C314.606232,114.750832 311.306396,114.917458 307.139893,114.825562 
	C305.769073,115.560692 303.230682,116.258797 303.206055,117.036613 
	C302.924988,125.900650 303.027466,134.776840 303.027466,143.976166 
	C305.087341,143.976166 306.535767,143.976166 308.914032,144.078125 
	C311.913269,144.102386 314.923859,144.304367 317.909363,144.113754 
	C324.032440,143.722824 328.208862,146.108185 330.179962,152.789047 
	C331.797028,158.838135 336.766479,164.011444 334.977631,170.998245 
	C334.977631,170.998245 334.985199,170.937851 334.422791,171.014603 
	C334.263367,171.344254 334.103912,171.673920 334.008606,172.010208 
	C334.008606,172.010208 334.004028,171.945877 333.469543,172.079895 
	C333.294525,172.389328 333.119476,172.698776 333.011261,173.011765 
	C333.011261,173.011765 333.008209,172.944916 332.479340,173.091721 
	C332.301147,173.397476 332.122955,173.703217 332.011902,174.011826 
	C332.011902,174.011826 332.008728,173.944702 331.480438,174.092789 
	C331.301880,174.398300 331.123322,174.703812 331.010773,175.011002 
	C331.010773,175.011002 331.004181,174.945297 330.476318,175.089554 
	C330.299377,175.394592 330.122437,175.699615 330.010010,176.009705 
	C330.010010,176.009705 330.004303,175.945236 329.476715,176.089996 
	C329.299652,176.394882 329.122589,176.699768 329.010010,177.009705 
	C329.010010,177.009705 329.004333,176.945251 328.476929,177.090256 
	C328.299805,177.395050 328.122681,177.699844 328.010071,178.009705 
	C328.010071,178.009705 328.004303,177.945267 327.476929,178.090256 
	C327.299835,178.395020 327.122742,178.699783 327.010101,179.009338 
	C327.010101,179.009338 327.003906,178.945023 326.477325,179.088943 
	C326.300751,179.393158 326.124146,179.697357 326.001160,179.970749 
	C326.001160,179.970749 325.954712,179.929962 325.311859,180.152802 
	C323.330566,181.283600 321.349274,182.414383 318.867462,183.830856 
	C322.578918,187.099396 324.268433,188.587296 326.001617,190.026260 
	C326.001617,190.026260 325.945923,189.991638 326.117523,190.503906 
	C326.415680,190.688339 326.713867,190.872757 327.012512,190.987366 
	C327.012512,190.987366 326.942657,190.988083 327.114685,191.502090 
	C327.413879,191.686996 327.713043,191.871887 328.012451,191.987061 
	C328.012451,191.987061 327.942719,191.988266 328.114197,192.502579 
	C328.413513,192.687317 328.712799,192.872040 329.012360,192.987122 
	C329.012360,192.987122 328.942719,192.988373 329.113739,193.502960 
	C329.413147,193.687546 329.712555,193.872147 330.012299,193.987152 
	C330.012299,193.987152 329.942749,193.988510 330.113220,194.503357 
	C330.412750,194.687790 330.712250,194.872238 331.012238,194.987228 
	C331.012238,194.987228 330.942810,194.988678 331.112671,195.503815 
	C331.412323,195.688080 331.711945,195.872345 332.012177,195.987305 
	C332.012177,195.987305 331.942902,195.988846 332.112244,196.504257 
	C332.411957,196.688370 332.711700,196.872482 333.012146,196.987366 
	C333.012146,196.987366 332.942963,196.988983 333.111847,197.504623 
	C333.411682,197.688599 333.711487,197.872589 334.012146,197.987427 
M235.771133,214.689331 
	C230.786041,223.927338 225.800949,233.165344 220.230789,243.487564 
	C226.666565,243.487564 231.749786,243.487564 237.776947,243.642365 
	C243.264297,243.642365 248.751648,243.642365 255.253326,243.642365 
	C249.410721,232.968277 244.288040,223.535522 239.007416,214.192017 
	C238.757431,213.749710 237.105835,214.099579 235.771133,214.689331 
M175.776093,243.637878 
	C181.263382,243.637878 186.750671,243.637878 193.250900,243.637878 
	C187.416061,232.969345 182.297134,223.536270 177.020401,214.192322 
	C176.772430,213.753204 175.119507,214.107483 173.787323,214.701645 
	C168.793564,223.933456 163.799789,233.165253 158.219009,243.482269 
	C164.666870,243.482269 169.749496,243.482269 175.776093,243.637878 
M175.890823,378.884155 
	C183.292542,378.884155 190.694260,378.884155 198.408051,378.884155 
	C198.408051,338.881531 198.408051,299.570709 198.408051,259.942719 
	C190.475281,259.942719 182.729156,259.942719 174.065918,259.752472 
	C167.134491,259.752472 160.203064,259.752472 153.122162,259.752472 
	C153.122162,299.825623 153.122162,339.180573 153.122162,378.731689 
	C160.691376,378.731689 167.825455,378.731689 175.890823,378.884155 
M237.830887,378.849152 
	C243.988235,378.875946 250.149765,378.776794 256.301270,378.980286 
	C259.596558,379.089294 260.678741,377.740204 260.678009,374.592468 
	C260.669342,337.644775 260.705200,300.697021 260.820190,263.749573 
	C260.830353,260.480804 259.568970,259.255859 256.404114,259.386322 
	C249.923889,259.653412 243.438095,259.785492 236.038101,259.813385 
	C230.541779,259.781586 225.038483,259.906677 219.551529,259.663574 
	C215.812988,259.497925 214.677094,260.947693 214.730133,264.610077 
	C214.903778,276.601532 214.775497,288.597351 214.763153,300.591492 
	C214.738144,324.912964 214.788757,349.234955 214.613083,373.555328 
	C214.583954,377.587402 215.627899,379.283630 219.914841,378.996918 
	C225.554352,378.619690 231.229691,378.777985 237.830887,378.849152 
M195.899872,481.012177 
	C207.036041,481.031616 218.172791,480.993591 229.308014,481.106689 
	C232.509613,481.139191 234.303894,480.341949 234.159256,476.656158 
	C233.553467,461.217529 233.138351,445.771515 232.576675,430.330994 
	C232.202316,420.040192 231.632416,409.756226 231.292480,399.464539 
	C231.189545,396.347931 230.033218,395.003784 226.802383,395.064240 
	C217.166641,395.244659 207.527313,395.233582 196.976456,395.182373 
	C193.158295,395.166382 189.306778,394.859924 185.540146,395.292450 
	C184.228088,395.443146 182.127823,397.374878 182.074295,398.568878 
	C180.899170,424.768158 179.994446,450.979462 178.936081,477.184326 
	C178.808426,480.345367 180.118378,481.266968 183.018173,481.134155 
	C186.994110,480.952057 190.979782,480.982758 195.899872,481.012177 
M372.801941,378.884216 
	C386.546387,379.029419 392.807404,372.958221 392.811035,359.420502 
	C392.821259,321.351166 392.814667,283.281830 392.814728,245.212494 
	C392.814728,243.445801 392.814758,241.679108 392.814758,239.955475 
	C387.099823,239.332794 382.031677,238.780594 376.382629,237.854965 
	C369.956635,234.224274 367.032837,228.662262 367.224701,221.348434 
	C367.285828,219.018433 367.572174,216.616608 367.118195,214.376785 
	C366.788513,212.750229 365.704712,210.491989 364.423492,210.045029 
	C362.885193,209.508377 360.424255,210.089844 359.000458,211.092606 
	C356.584351,212.794266 354.737701,215.281570 352.527893,217.303314 
	C345.705475,223.545059 336.715820,223.655777 330.053650,217.287079 
	C322.952698,210.498962 316.014313,203.531265 309.210419,196.444672 
	C302.505066,189.460648 302.688293,180.283890 309.406311,173.215515 
	C311.470245,171.043930 313.830505,169.122940 315.673096,166.786011 
	C316.507568,165.727615 317.042725,163.653580 316.555756,162.552307 
	C316.069855,161.453369 314.202820,160.568054 312.821838,160.351669 
	C310.545868,159.995071 308.173676,160.258163 305.842072,160.250366 
	C292.982880,160.207352 287.472595,154.846268 286.906006,141.866241 
	C286.879242,141.252457 286.614960,140.649017 286.389801,139.757874 
	C284.766846,139.757874 283.286224,139.757889 281.805603,139.757889 
	C203.196350,139.757477 124.587097,139.755844 45.977844,139.766739 
	C44.652905,139.766922 43.327991,139.918365 41.115074,139.805496 
	C27.519632,139.614685 20.653492,144.962952 20.636480,156.527542 
	C20.535793,224.975235 20.545631,293.423218 20.627453,361.870941 
	C20.640064,372.420807 27.386686,378.774353 38.008377,378.906799 
	C39.335361,378.923340 40.664101,378.799103 42.918648,378.896790 
	C73.996490,378.896790 105.074333,378.896790 136.668610,378.896790 
	C136.668610,376.332458 136.666809,374.370453 136.668884,372.408447 
	C136.710144,333.435211 136.727249,294.461914 136.845749,255.488876 
	C136.854141,252.728516 136.908813,249.603699 138.130249,247.270386 
	C146.459946,231.358093 155.024323,215.566284 163.697891,199.837570 
	C166.821594,194.173019 172.417343,191.813995 178.512192,193.072418 
	C183.283447,194.057556 186.256042,197.220612 188.496414,201.388901 
	C194.364716,212.306992 200.355270,223.159409 206.682068,234.742798 
	C212.686096,223.661392 218.409088,213.364716 223.862442,202.927139 
	C226.814377,197.277206 230.434616,192.916855 237.418777,192.830109 
	C244.407242,192.743317 248.137573,196.960541 251.156754,202.618256 
	C258.595245,216.557434 266.422180,230.291458 273.715271,244.304520 
	C275.475677,247.686935 276.596985,251.829041 276.611420,255.627121 
	C276.758911,294.432983 276.616852,333.239960 276.556366,372.046631 
	C276.553040,374.162506 276.555908,376.278381 276.555908,378.301239 
	C277.582581,378.604797 278.046143,378.862152 278.509369,378.861572 
	C309.649323,378.822510 340.789276,378.762695 372.801941,378.884216 
z"/>
<path fill="#FFE1E2" opacity="1.000000" stroke="none" 
	d="
M42.003063,139.999237 
	C43.327991,139.918365 44.652905,139.766922 45.977844,139.766739 
	C124.587097,139.755844 203.196350,139.757477 281.805603,139.757889 
	C283.286224,139.757889 284.766846,139.757874 286.389801,139.757874 
	C286.614960,140.649017 286.879242,141.252457 286.906006,141.866241 
	C287.472595,154.846268 292.982880,160.207352 305.842072,160.250366 
	C308.173676,160.258163 310.545868,159.995071 312.821838,160.351669 
	C314.202820,160.568054 316.069855,161.453369 316.555756,162.552307 
	C317.042725,163.653580 316.507568,165.727615 315.673096,166.786011 
	C313.830505,169.122940 311.470245,171.043930 309.406311,173.215515 
	C302.688293,180.283890 302.505066,189.460648 309.210419,196.444672 
	C316.014313,203.531265 322.952698,210.498962 330.053650,217.287079 
	C336.715820,223.655777 345.705475,223.545059 352.527893,217.303314 
	C354.737701,215.281570 356.584351,212.794266 359.000458,211.092606 
	C360.424255,210.089844 362.885193,209.508377 364.423492,210.045029 
	C365.704712,210.491989 366.788513,212.750229 367.118195,214.376785 
	C367.572174,216.616608 367.285828,219.018433 367.224701,221.348434 
	C367.032837,228.662262 369.956635,234.224274 376.673096,238.495834 
	C376.973267,274.469879 376.955872,309.803101 377.008270,345.136230 
	C377.025269,356.597961 377.960266,368.170319 371.929199,378.704651 
	C340.789276,378.762695 309.649323,378.822510 278.509369,378.861572 
	C278.046143,378.862152 277.582581,378.604797 276.555908,378.301239 
	C276.555908,376.278381 276.553040,374.162506 276.556366,372.046631 
	C276.616852,333.239960 276.758911,294.432983 276.611420,255.627121 
	C276.596985,251.829041 275.475677,247.686935 273.715271,244.304520 
	C266.422180,230.291458 258.595245,216.557434 251.156754,202.618256 
	C248.137573,196.960541 244.407242,192.743317 237.418777,192.830109 
	C230.434616,192.916855 226.814377,197.277206 223.862442,202.927139 
	C218.409088,213.364716 212.686096,223.661392 206.682068,234.742798 
	C200.355270,223.159409 194.364716,212.306992 188.496414,201.388901 
	C186.256042,197.220612 183.283447,194.057556 178.512192,193.072418 
	C172.417343,191.813995 166.821594,194.173019 163.697891,199.837570 
	C155.024323,215.566284 146.459946,231.358093 138.130249,247.270386 
	C136.908813,249.603699 136.854141,252.728516 136.845749,255.488876 
	C136.727249,294.461914 136.710144,333.435211 136.668884,372.408447 
	C136.666809,374.370453 136.668610,376.332458 136.668610,378.896790 
	C105.074333,378.896790 73.996490,378.896790 42.348381,378.497681 
	C37.915226,372.352356 36.890610,366.038513 36.906281,359.142609 
	C37.057198,292.709106 37.055870,226.274979 36.911453,159.841415 
	C36.895802,152.641678 37.573086,145.916550 42.003063,139.999237 
M44.499569,319.972717 
	C51.682499,324.045776 57.690701,320.924744 57.803162,312.799286 
	C57.975758,300.329071 57.912247,287.854248 57.821476,275.382294 
	C57.779568,269.623810 54.458057,265.971100 49.685108,266.015808 
	C44.874935,266.060852 41.875599,269.609131 41.850906,275.538757 
	C41.799660,287.844849 41.728107,300.153107 41.930447,312.456085 
	C41.968662,314.779846 43.238403,317.083344 44.499569,319.972717 
M57.638893,360.652649 
	C57.689041,355.007355 57.987484,349.349915 57.712406,343.720520 
	C57.483799,339.042145 53.783489,335.886139 49.525738,336.014221 
	C45.195305,336.144470 42.044033,339.382385 41.886562,344.192627 
	C41.734383,348.841278 41.896389,353.499329 41.821136,358.151642 
	C41.747730,362.689606 43.474953,366.061188 48.114517,366.979492 
	C52.633137,367.873810 55.857071,365.923523 57.638893,360.652649 
z"/>
<path fill="#87818E" opacity="1.000000" stroke="none" 
	d="
M330.136261,152.063400 
	C328.208862,146.108185 324.032440,143.722824 317.909363,144.113754 
	C314.923859,144.304367 311.913269,144.102386 308.447693,143.560303 
	C307.990570,133.687149 307.999756,124.331810 308.008972,114.976471 
	C311.306396,114.917458 314.606232,114.750832 317.900726,114.823837 
	C323.285492,114.943130 327.202850,112.986893 329.427612,107.250412 
	C331.519836,105.774185 333.642212,104.952255 334.534485,103.415924 
	C336.187836,100.569061 336.884277,97.180916 338.411652,94.242996 
	C340.685730,89.868668 339.499969,87.305527 334.906311,86.028145 
	C334.906311,86.028145 334.967987,86.006470 334.944763,85.863556 
	C334.611053,85.480003 334.300568,85.239365 333.990051,84.998726 
	C331.725861,82.716438 329.461670,80.434143 327.026611,77.458145 
	C326.555054,73.073647 326.254395,69.382866 325.953735,65.692078 
	C330.355286,61.221149 334.756866,56.750221 339.886261,52.125244 
	C341.212891,51.960541 341.811737,51.949890 342.410553,51.939240 
	C346.053345,55.324413 349.808502,58.598263 353.305267,62.128098 
	C356.401276,65.253380 359.842773,65.914200 363.780243,64.336731 
	C368.565002,62.419838 373.468414,60.692780 377.985565,58.261353 
	C380.088470,57.129414 381.401764,54.530548 383.561096,52.241650 
	C387.122711,51.947369 388.015289,50.087379 388.005890,47.413406 
	C387.989044,42.627583 387.983429,37.841721 387.973145,33.055870 
	C394.326843,33.043198 400.680573,33.030521 407.508423,33.520218 
	C407.993195,38.181293 408.098053,42.342564 407.985229,46.497921 
	C407.891113,49.963936 409.353394,51.843651 412.853027,52.048767 
	C413.972473,55.903893 416.579834,58.027248 420.374237,59.266571 
	C424.301422,60.549229 428.086304,62.297081 431.867828,63.988197 
	C436.134125,65.896118 439.899597,65.484825 443.250519,62.087940 
	C446.164734,59.133724 449.223633,56.316391 452.038757,53.272247 
	C454.075317,51.070026 455.690765,51.015514 457.777527,53.227444 
	C461.990234,57.692844 466.377045,61.994007 470.856689,67.094482 
	C470.986908,70.506058 470.952545,73.186073 470.918152,75.866081 
	C468.109741,78.772064 465.301361,81.678055 461.899963,84.871773 
	C458.705017,86.834671 455.407257,88.127457 457.197083,92.306679 
	C458.564270,95.499016 459.677887,98.862320 461.511719,101.765961 
	C462.422577,103.208229 464.699310,103.787888 466.358154,104.757767 
	C468.416443,111.622437 473.139465,114.003494 480.028381,113.186424 
	C482.634216,112.877342 485.317413,113.219994 488.445190,113.760101 
	C488.925934,123.768944 488.926819,133.283249 488.927704,142.797562 
	C485.493347,142.860001 482.035461,143.205673 478.629791,142.922867 
	C472.514160,142.415024 468.498901,144.710983 466.174164,150.938782 
	C464.225952,152.123489 462.365204,152.775040 461.621460,154.068756 
	C460.064117,156.777664 459.319641,159.945923 457.831848,162.704651 
	C455.616577,166.812210 457.054474,168.896866 461.165222,169.909943 
	C463.942993,172.808762 466.720764,175.707596 469.761292,179.260925 
	C469.973480,183.552658 469.922913,187.189911 469.872375,190.827164 
	C465.972809,194.695068 461.967407,198.463699 458.212585,202.467361 
	C455.887909,204.946121 454.067963,205.226074 451.689026,202.547760 
	C449.039337,199.564575 446.054901,196.880371 443.247070,194.035507 
	C439.894714,190.638901 436.148621,190.157043 431.847198,192.132355 
	C427.919250,193.936172 423.696106,195.172546 419.956116,197.284348 
	C417.375183,198.741669 415.395691,201.264191 412.642334,203.685318 
	C409.100128,204.425613 407.964874,206.262634 408.002991,209.176239 
	C408.063385,213.795670 408.015686,218.416489 408.013702,223.036728 
	C401.657196,223.060287 395.300690,223.083847 388.484070,222.593307 
	C388.023163,217.920029 387.940247,213.758728 388.047394,209.602325 
	C388.134430,206.225601 387.015717,204.092377 383.289673,204.119995 
	C380.966675,201.766541 378.982178,198.850876 376.237274,197.198196 
	C372.591064,195.002823 368.299347,193.907898 364.381348,192.128052 
	C360.073029,190.170914 356.453186,190.691437 353.112946,194.173950 
	C349.905518,197.517944 346.456085,200.629822 342.381653,203.950073 
	C341.073212,204.052383 340.496124,204.048340 339.919037,204.044281 
	C339.919037,204.044281 339.972107,204.000900 339.829041,203.836029 
	C339.438263,203.443710 339.190613,203.216263 338.942963,202.988815 
	C338.942963,202.988815 339.012238,202.987396 338.849152,202.829178 
	C338.438416,202.443634 338.190735,202.216324 337.943085,201.989014 
	C337.943085,201.989014 338.012268,201.987457 337.849243,201.829071 
	C337.438538,201.443512 337.190826,201.216339 336.943146,200.989166 
	C336.943146,200.989151 337.012207,200.987488 336.849304,200.828995 
	C336.438629,200.443405 336.190887,200.216309 335.943146,199.989197 
	C335.943146,199.989197 336.012146,199.987488 335.849304,199.828918 
	C335.438660,199.443283 335.190857,199.216217 334.943085,198.989151 
	C334.943085,198.989151 335.012177,198.987488 334.849304,198.828888 
	C334.438660,198.443237 334.190826,198.216156 333.943024,197.989075 
	C333.943024,197.989075 334.012146,197.987427 333.849304,197.828888 
	C333.438599,197.443237 333.190796,197.216110 332.942963,196.988983 
	C332.942963,196.988983 333.012146,196.987366 332.849243,196.828918 
	C332.438507,196.443268 332.190704,196.216064 331.942902,195.988846 
	C331.942902,195.988846 332.012177,195.987305 331.849182,195.828979 
	C331.438385,195.443329 331.190613,195.216003 330.942810,194.988678 
	C330.942810,194.988678 331.012238,194.987228 330.849121,194.829071 
	C330.438232,194.443436 330.190491,194.215973 329.942749,193.988495 
	C329.942749,193.988510 330.012299,193.987152 329.849060,193.829163 
	C329.438110,193.443573 329.190430,193.215973 328.942719,192.988373 
	C328.942719,192.988373 329.012360,192.987122 328.849030,192.829254 
	C328.438049,192.443680 328.190369,192.215973 327.942719,191.988266 
	C327.942719,191.988266 328.012451,191.987061 327.848999,191.829285 
	C327.437927,191.443695 327.190277,191.215881 326.942657,190.988083 
	C326.942657,190.988083 327.012512,190.987366 326.850220,190.829422 
	C326.440613,190.444855 326.193268,190.218246 325.945923,189.991638 
	C325.945923,189.991638 326.001617,190.026260 325.971588,189.654999 
	C325.945953,186.165817 325.950317,183.047897 325.954712,179.929962 
	C325.954712,179.929962 326.001160,179.970749 326.170288,179.830688 
	C326.560913,179.442108 326.782410,179.193573 327.003906,178.945038 
	C327.003906,178.945023 327.010101,179.009338 327.172821,178.849533 
	C327.558472,178.441574 327.781403,178.193420 328.004303,177.945267 
	C328.004303,177.945267 328.010071,178.009705 328.172729,177.849731 
	C328.558380,177.441574 328.781372,177.193420 329.004333,176.945251 
	C329.004333,176.945251 329.010010,177.009705 329.172699,176.849731 
	C329.558350,176.441574 329.781311,176.193405 330.004303,175.945221 
	C330.004303,175.945236 330.010010,176.009705 330.172668,175.849762 
	C330.558289,175.441635 330.781250,175.193466 331.004181,174.945297 
	C331.004181,174.945297 331.010773,175.011002 331.172668,174.850891 
	C331.559296,174.442078 331.783997,174.193390 332.008728,173.944702 
	C332.008728,173.944702 332.011902,174.011826 332.173462,173.851547 
	C332.559418,173.442490 332.783813,173.193710 333.008209,172.944916 
	C333.008209,172.944916 333.011261,173.011765 333.173340,172.852448 
	C333.558258,172.444031 333.781158,172.194962 334.004028,171.945877 
	C334.004028,171.945877 334.008606,172.010208 334.172729,171.852264 
	C334.591400,171.475128 334.807526,171.222961 334.985199,170.937851 
	C334.985199,170.937851 334.977631,170.998245 335.294067,170.905121 
	C339.946198,168.729492 340.595215,165.640564 338.285370,161.574768 
	C337.321472,159.878052 336.539795,158.046432 335.916321,156.194992 
	C334.960205,153.355804 333.283417,151.735779 330.136261,152.063400 
M355.078979,77.554062 
	C332.603363,98.212845 325.744812,127.464539 336.949951,153.896194 
	C347.139404,177.931976 372.936371,196.707428 404.770691,194.237747 
	C451.149475,190.639709 479.594940,136.822418 456.291168,95.906250 
	C434.953888,58.442822 386.815308,51.131710 355.078979,77.554062 
z"/>
<path fill="#FFEFEE" opacity="1.000000" stroke="none" 
	d="
M41.559067,139.902374 
	C37.573086,145.916550 36.895802,152.641678 36.911453,159.841415 
	C37.055870,226.274979 37.057198,292.709106 36.906281,359.142609 
	C36.890610,366.038513 37.915226,372.352356 41.885071,378.419342 
	C40.664101,378.799103 39.335361,378.923340 38.008377,378.906799 
	C27.386686,378.774353 20.640064,372.420807 20.627453,361.870941 
	C20.545631,293.423218 20.535793,224.975235 20.636480,156.527542 
	C20.653492,144.962952 27.519632,139.614685 41.559067,139.902374 
z"/>
<path fill="#87828E" opacity="1.000000" stroke="none" 
	d="
M197.889389,395.297333 
	C207.527313,395.233582 217.166641,395.244659 226.802383,395.064240 
	C230.033218,395.003784 231.189545,396.347931 231.292480,399.464539 
	C231.632416,409.756226 232.202316,420.040192 232.576675,430.330994 
	C233.138351,445.771515 233.553467,461.217529 234.159256,476.656158 
	C234.303894,480.341949 232.509613,481.139191 229.308014,481.106689 
	C218.172791,480.993591 207.036041,481.031616 195.440704,480.505737 
	C195.048813,475.673431 195.038177,471.344757 195.196365,467.022217 
	C196.071320,443.113068 196.987396,419.205475 197.889389,395.297333 
z"/>
<path fill="#E82A6A" opacity="1.000000" stroke="none" 
	d="
M236.954605,259.973206 
	C243.438095,259.785492 249.923889,259.653412 256.404114,259.386322 
	C259.568970,259.255859 260.830353,260.480804 260.820190,263.749573 
	C260.705200,300.697021 260.669342,337.644775 260.678009,374.592468 
	C260.678741,377.740204 259.596558,379.089294 256.301270,378.980286 
	C250.149765,378.776794 243.988235,378.875946 237.370728,378.356873 
	C236.925232,338.567444 236.939911,299.270325 236.954605,259.973206 
z"/>
<path fill="#5FCAFC" opacity="1.000000" stroke="none" 
	d="
M174.983017,259.942719 
	C182.729156,259.942719 190.475281,259.942719 198.408051,259.942719 
	C198.408051,299.570709 198.408051,338.881531 198.408051,378.884155 
	C190.694260,378.884155 183.292542,378.884155 175.430130,378.356567 
	C174.973953,338.533569 174.978485,299.238129 174.983017,259.942719 
z"/>
<path fill="#73D7F9" opacity="1.000000" stroke="none" 
	d="
M174.524475,259.847595 
	C174.978485,299.238129 174.973953,338.533569 174.964478,378.280334 
	C167.825455,378.731689 160.691376,378.731689 153.122162,378.731689 
	C153.122162,339.180573 153.122162,299.825623 153.122162,259.752472 
	C160.203064,259.752472 167.134491,259.752472 174.524475,259.847595 
z"/>
<path fill="#FE4973" opacity="1.000000" stroke="none" 
	d="
M236.496353,259.893311 
	C236.939911,299.270325 236.925232,338.567444 236.900085,378.285278 
	C231.229691,378.777985 225.554352,378.619690 219.914841,378.996918 
	C215.627899,379.283630 214.583954,377.587402 214.613083,373.555328 
	C214.788757,349.234955 214.738144,324.912964 214.763153,300.591492 
	C214.775497,288.597351 214.903778,276.601532 214.730133,264.610077 
	C214.677094,260.947693 215.812988,259.497925 219.551529,259.663574 
	C225.038483,259.906677 230.541779,259.781586 236.496353,259.893311 
z"/>
<path fill="#FBCCCD" opacity="1.000000" stroke="none" 
	d="
M372.365570,378.794434 
	C377.960266,368.170319 377.025269,356.597961 377.008270,345.136230 
	C376.955872,309.803101 376.973267,274.469879 376.963562,238.682541 
	C382.031677,238.780594 387.099823,239.332794 392.814758,239.955475 
	C392.814758,241.679108 392.814728,243.445801 392.814728,245.212494 
	C392.814667,283.281830 392.821259,321.351166 392.811035,359.420502 
	C392.807404,372.958221 386.546387,379.029419 372.365570,378.794434 
z"/>
<path fill="#A3A3A4" opacity="1.000000" stroke="none" 
	d="
M197.432922,395.239868 
	C196.987396,419.205475 196.071320,443.113068 195.196365,467.022217 
	C195.038177,471.344757 195.048813,475.673431 194.971405,480.460785 
	C190.979782,480.982758 186.994110,480.952057 183.018173,481.134155 
	C180.118378,481.266968 178.808426,480.345367 178.936081,477.184326 
	C179.994446,450.979462 180.899170,424.768158 182.074295,398.568878 
	C182.127823,397.374878 184.228088,395.443146 185.540146,395.292450 
	C189.306778,394.859924 193.158295,395.166382 197.432922,395.239868 
z"/>
<path fill="#867F8D" opacity="1.000000" stroke="none" 
	d="
M174.120880,214.092270 
	C175.119507,214.107483 176.772430,213.753204 177.020401,214.192322 
	C182.297134,223.536270 187.416061,232.969345 193.250900,243.637878 
	C186.750671,243.637878 181.263382,243.637878 175.351562,243.132141 
	C174.970734,239.161560 175.147232,235.692169 175.028809,232.232880 
	C174.821655,226.182739 174.433304,220.138809 174.120880,214.092270 
z"/>
<path fill="#867E8D" opacity="1.000000" stroke="none" 
	d="
M236.106979,214.080536 
	C237.105835,214.099579 238.757431,213.749710 239.007416,214.192017 
	C244.288040,223.535522 249.410721,232.968277 255.253326,243.642365 
	C248.751648,243.642365 243.264297,243.642365 237.351669,243.136475 
	C236.969284,238.832840 237.150223,235.030457 237.022827,231.238434 
	C236.830536,225.515350 236.423019,219.799469 236.106979,214.080536 
z"/>
<path fill="#A3A2A4" opacity="1.000000" stroke="none" 
	d="
M235.939056,214.384933 
	C236.423019,219.799469 236.830536,225.515350 237.022827,231.238434 
	C237.150223,235.030457 236.969284,238.832840 236.879700,243.059082 
	C231.749786,243.487564 226.666565,243.487564 220.230789,243.487564 
	C225.800949,233.165344 230.786041,223.927338 235.939056,214.384933 
z"/>
<path fill="#A3A2A4" opacity="1.000000" stroke="none" 
	d="
M173.954102,214.396957 
	C174.433304,220.138809 174.821655,226.182739 175.028809,232.232880 
	C175.147232,235.692169 174.970734,239.161560 174.879578,243.054337 
	C169.749496,243.482269 164.666870,243.482269 158.219009,243.482269 
	C163.799789,233.165253 168.793564,223.933456 173.954102,214.396957 
z"/>
<path fill="#A3A3A4" opacity="1.000000" stroke="none" 
	d="
M307.574402,114.901016 
	C307.999756,124.331810 307.990570,133.687149 307.982788,143.509323 
	C306.535767,143.976166 305.087341,143.976166 303.027466,143.976166 
	C303.027466,134.776840 302.924988,125.900650 303.206055,117.036613 
	C303.230682,116.258797 305.769073,115.560692 307.574402,114.901016 
z"/>
<path fill="#796D84" opacity="1.000000" stroke="none" 
	d="
M489.339874,142.832611 
	C488.926819,133.283249 488.925934,123.768944 488.901123,113.820038 
	C491.952393,112.771187 493.157318,114.181824 493.138763,117.153839 
	C493.093140,124.460960 493.285858,131.775681 492.968689,139.069351 
	C492.911682,140.379608 490.874817,141.603760 489.339874,142.832611 
z"/>
<path fill="#A4A4A5" opacity="1.000000" stroke="none" 
	d="
M387.556458,33.004734 
	C387.983429,37.841721 387.989044,42.627583 388.005890,47.413406 
	C388.015289,50.087379 387.122711,51.947369 383.670441,51.883076 
	C383.277069,46.745457 383.349640,41.609131 383.214020,36.478306 
	C383.137268,33.573734 384.456482,32.597389 387.556458,33.004734 
z"/>
<path fill="#796E84" opacity="1.000000" stroke="none" 
	d="
M412.891022,51.577709 
	C409.353394,51.843651 407.891113,49.963936 407.985229,46.497921 
	C408.098053,42.342564 407.993195,38.181293 407.972809,33.563660 
	C411.563690,32.506824 413.206604,33.865532 413.028625,37.671711 
	C412.819580,42.141800 412.947357,46.627644 412.891022,51.577709 
z"/>
<path fill="#796F84" opacity="1.000000" stroke="none" 
	d="
M408.433014,223.057739 
	C408.015686,218.416489 408.063385,213.795670 408.002991,209.176239 
	C407.964874,206.262634 409.100128,204.425613 412.512695,204.011398 
	C412.916718,208.961273 412.881012,213.961212 412.998230,218.957550 
	C413.067535,221.910873 411.865265,223.344666 408.433014,223.057739 
z"/>
<path fill="#A4A4A5" opacity="1.000000" stroke="none" 
	d="
M383.265320,204.579254 
	C387.015717,204.092377 388.134430,206.225601 388.047394,209.602325 
	C387.940247,213.758728 388.023163,217.920029 388.018127,222.548431 
	C384.146149,223.891403 383.013153,222.093933 383.178772,218.467590 
	C383.382782,213.999603 383.236115,209.515610 383.265320,204.579254 
z"/>
<path fill="#A09EA2" opacity="1.000000" stroke="none" 
	d="
M334.940125,86.462509 
	C339.499969,87.305527 340.685730,89.868668 338.411652,94.242996 
	C336.884277,97.180916 336.187836,100.569061 334.534485,103.415924 
	C333.642212,104.952255 331.519836,105.774185 329.573547,106.916336 
	C330.640259,103.088562 332.283173,99.322533 333.464325,95.416847 
	C334.293365,92.675400 334.493134,89.743637 334.940125,86.462509 
z"/>
<path fill="#A09DA2" opacity="1.000000" stroke="none" 
	d="
M330.158112,152.426224 
	C333.283417,151.735779 334.960205,153.355804 335.916321,156.194992 
	C336.539795,158.046432 337.321472,159.878052 338.285370,161.574768 
	C340.595215,165.640564 339.946198,168.729492 335.269135,170.887665 
	C336.766479,164.011444 331.797028,158.838135 330.158112,152.426224 
z"/>
<path fill="#796C83" opacity="1.000000" stroke="none" 
	d="
M466.283783,104.390930 
	C464.699310,103.787888 462.422577,103.208229 461.511719,101.765961 
	C459.677887,98.862320 458.564270,95.499016 457.197083,92.306679 
	C455.407257,88.127457 458.705017,86.834671 461.632690,85.067902 
	C462.364624,88.737839 462.503906,92.554588 463.266296,96.242493 
	C463.820801,98.924553 465.198669,101.436363 466.283783,104.390930 
z"/>
<path fill="#786B83" opacity="1.000000" stroke="none" 
	d="
M461.138580,169.490875 
	C457.054474,168.896866 455.616577,166.812210 457.831848,162.704651 
	C459.319641,159.945923 460.064117,156.777664 461.621460,154.068756 
	C462.365204,152.775040 464.225952,152.123489 465.988220,151.229523 
	C465.287689,154.202438 464.009186,157.076218 463.119904,160.065750 
	C462.245087,163.006653 461.765167,166.065002 461.138580,169.490875 
z"/>
<path fill="#746180" opacity="1.000000" stroke="none" 
	d="
M470.172272,190.685974 
	C469.922913,187.189911 469.973480,183.552658 469.957703,179.528015 
	C470.039795,179.212204 470.207214,179.259521 470.333893,179.358826 
	C477.033936,184.612106 477.037872,184.969406 470.172272,190.685974 
z"/>
<path fill="#9C989F" opacity="1.000000" stroke="none" 
	d="
M325.677063,65.902779 
	C326.254395,69.382866 326.555054,73.073647 326.913269,77.172684 
	C324.902100,75.601166 322.833374,73.621407 320.440399,71.331306 
	C322.325500,69.348213 323.862915,67.730843 325.677063,65.902779 
z"/>
<path fill="#9D9A9F" opacity="1.000000" stroke="none" 
	d="
M325.633301,180.041382 
	C325.950317,183.047897 325.945953,186.165817 325.949768,189.679474 
	C324.268433,188.587296 322.578918,187.099396 318.867462,183.830856 
	C321.349274,182.414383 323.330566,181.283600 325.633301,180.041382 
z"/>
<path fill="#796C83" opacity="1.000000" stroke="none" 
	d="
M471.221100,75.720787 
	C470.952545,73.186073 470.986908,70.506058 471.037659,67.371368 
	C476.054260,70.969170 476.078308,71.412071 471.221100,75.720787 
z"/>
<path fill="#9D9A9F" opacity="1.000000" stroke="none" 
	d="
M340.010437,204.296219 
	C340.496124,204.048340 341.073212,204.052383 342.085876,204.055359 
	C341.714935,204.218903 340.908417,204.383514 340.010437,204.296219 
z"/>
<path fill="#A09EA2" opacity="1.000000" stroke="none" 
	d="
M334.107330,85.218193 
	C334.300568,85.239365 334.611053,85.480003 334.948486,85.896019 
	C334.654999,85.943245 334.404724,85.732002 334.107330,85.218193 
z"/>
<path fill="#9C989F" opacity="1.000000" stroke="none" 
	d="
M342.187378,51.702255 
	C341.811737,51.949890 341.212891,51.960541 340.165497,51.964165 
	C340.466003,51.793182 341.215088,51.629227 342.187378,51.702255 
z"/>
<path fill="#9D9A9F" opacity="1.000000" stroke="none" 
	d="
M328.740631,177.017761 
	C328.781372,177.193420 328.558380,177.441574 328.140503,177.847198 
	C328.122681,177.699844 328.299805,177.395050 328.740631,177.017761 
z"/>
<path fill="#9D9A9F" opacity="1.000000" stroke="none" 
	d="
M326.031738,190.247772 
	C326.193268,190.218246 326.440613,190.444855 326.849976,190.864334 
	C326.713867,190.872757 326.415680,190.688339 326.031738,190.247772 
z"/>
<path fill="#9D9A9F" opacity="1.000000" stroke="none" 
	d="
M327.028687,191.245087 
	C327.190277,191.215881 327.437927,191.443695 327.848877,191.864136 
	C327.713043,191.871887 327.413879,191.686996 327.028687,191.245087 
z"/>
<path fill="#9D9A9F" opacity="1.000000" stroke="none" 
	d="
M328.028442,192.245422 
	C328.190369,192.215973 328.438049,192.443680 328.848907,192.864075 
	C328.712799,192.872040 328.413513,192.687317 328.028442,192.245422 
z"/>
<path fill="#9D9A9F" opacity="1.000000" stroke="none" 
	d="
M329.028229,193.245667 
	C329.190430,193.215973 329.438110,193.443573 329.848877,193.863953 
	C329.712555,193.872147 329.413147,193.687546 329.028229,193.245667 
z"/>
<path fill="#A09DA2" opacity="1.000000" stroke="none" 
	d="
M334.703979,170.976227 
	C334.807526,171.222961 334.591400,171.475128 334.140656,171.848938 
	C334.103912,171.673920 334.263367,171.344254 334.703979,170.976227 
z"/>
<path fill="#A09DA2" opacity="1.000000" stroke="none" 
	d="
M333.736786,172.012878 
	C333.781158,172.194962 333.558258,172.444031 333.139923,172.850662 
	C333.119476,172.698776 333.294525,172.389328 333.736786,172.012878 
z"/>
<path fill="#A09DA2" opacity="1.000000" stroke="none" 
	d="
M332.743774,173.018311 
	C332.783813,173.193710 332.559418,173.442490 332.139893,173.850113 
	C332.122955,173.703217 332.301147,173.397476 332.743774,173.018311 
z"/>
<path fill="#A09DA2" opacity="1.000000" stroke="none" 
	d="
M331.744568,174.018738 
	C331.783997,174.193390 331.559296,174.442078 331.139648,174.850037 
	C331.123322,174.703812 331.301880,174.398300 331.744568,174.018738 
z"/>
<path fill="#9D9A9F" opacity="1.000000" stroke="none" 
	d="
M330.740234,175.017426 
	C330.781250,175.193466 330.558289,175.441635 330.140442,175.847229 
	C330.122437,175.699615 330.299377,175.394592 330.740234,175.017426 
z"/>
<path fill="#9D9A9F" opacity="1.000000" stroke="none" 
	d="
M329.740509,176.017609 
	C329.781311,176.193405 329.558350,176.441574 329.140442,176.847198 
	C329.122589,176.699768 329.299652,176.394882 329.740509,176.017609 
z"/>
<path fill="#9D9A9F" opacity="1.000000" stroke="none" 
	d="
M332.027588,196.246552 
	C332.190704,196.216064 332.438507,196.443268 332.848877,196.863525 
	C332.711700,196.872482 332.411957,196.688370 332.027588,196.246552 
z"/>
<path fill="#9D9A9F" opacity="1.000000" stroke="none" 
	d="
M327.740601,178.017761 
	C327.781403,178.193420 327.558472,178.441574 327.140625,178.847137 
	C327.122742,178.699783 327.299835,178.395020 327.740601,178.017761 
z"/>
<path fill="#9D9A9F" opacity="1.000000" stroke="none" 
	d="
M326.740601,179.016998 
	C326.782410,179.193573 326.560913,179.442108 326.143494,179.846100 
	C326.124146,179.697357 326.300751,179.393158 326.740601,179.016998 
z"/>
<path fill="#9D9A9F" opacity="1.000000" stroke="none" 
	d="
M330.027985,194.245926 
	C330.190491,194.215973 330.438232,194.443436 330.848877,194.863785 
	C330.712250,194.872238 330.412750,194.687790 330.027985,194.245926 
z"/>
<path fill="#9D9A9F" opacity="1.000000" stroke="none" 
	d="
M331.027740,195.246246 
	C331.190613,195.216003 331.438385,195.443329 331.848877,195.863632 
	C331.711945,195.872345 331.412323,195.688080 331.027740,195.246246 
z"/>
<path fill="#9D9A9F" opacity="1.000000" stroke="none" 
	d="
M339.027283,203.246796 
	C339.190613,203.216263 339.438263,203.443710 339.848816,203.863983 
	C339.711670,203.872787 339.411621,203.688782 339.027283,203.246796 
z"/>
<path fill="#9D9A9F" opacity="1.000000" stroke="none" 
	d="
M338.027161,202.247101 
	C338.190735,202.216324 338.438416,202.443634 338.848816,202.863831 
	C338.711426,202.872879 338.411346,202.689041 338.027161,202.247101 
z"/>
<path fill="#9D9A9F" opacity="1.000000" stroke="none" 
	d="
M337.027039,201.247314 
	C337.190826,201.216339 337.438538,201.443512 337.848816,201.863678 
	C337.711212,201.872910 337.411102,201.689178 337.027039,201.247314 
z"/>
<path fill="#9D9A9F" opacity="1.000000" stroke="none" 
	d="
M336.027039,200.247345 
	C336.190887,200.216309 336.438629,200.443405 336.848816,200.863525 
	C336.711151,200.872864 336.411041,200.689163 336.027039,200.247345 
z"/>
<path fill="#9D9A9F" opacity="1.000000" stroke="none" 
	d="
M335.027130,199.247192 
	C335.190857,199.216217 335.438660,199.443283 335.848816,199.863434 
	C335.711182,199.872757 335.411194,199.688995 335.027130,199.247192 
z"/>
<path fill="#9D9A9F" opacity="1.000000" stroke="none" 
	d="
M334.027283,198.247009 
	C334.190826,198.216156 334.438660,198.443237 334.848846,198.863434 
	C334.711334,198.872681 334.411438,198.688812 334.027283,198.247009 
z"/>
<path fill="#9D9A9F" opacity="1.000000" stroke="none" 
	d="
M333.027405,197.246796 
	C333.190796,197.216110 333.438599,197.443237 333.848877,197.863464 
	C333.711487,197.872589 333.411682,197.688599 333.027405,197.246796 
z"/>
<path fill="#62296F" opacity="1.000000" stroke="none" 
	d="
M44.219727,319.684448 
	C43.238403,317.083344 41.968662,314.779846 41.930447,312.456085 
	C41.728107,300.153107 41.799660,287.844849 41.850906,275.538757 
	C41.875599,269.609131 44.874935,266.060852 49.685108,266.015808 
	C54.458057,265.971100 57.779568,269.623810 57.821476,275.382294 
	C57.912247,287.854248 57.975758,300.329071 57.803162,312.799286 
	C57.690701,320.924744 51.682499,324.045776 44.219727,319.684448 
z"/>
<path fill="#622A6F" opacity="1.000000" stroke="none" 
	d="
M57.508186,361.052673 
	C55.857071,365.923523 52.633137,367.873810 48.114517,366.979492 
	C43.474953,366.061188 41.747730,362.689606 41.821136,358.151642 
	C41.896389,353.499329 41.734383,348.841278 41.886562,344.192627 
	C42.044033,339.382385 45.195305,336.144470 49.525738,336.014221 
	C53.783489,335.886139 57.483799,339.042145 57.712406,343.720520 
	C57.987484,349.349915 57.689041,355.007355 57.508186,361.052673 
z"/>
<path fill="#60286C" opacity="1.000000" stroke="none" 
	d="
M355.347504,77.321548 
	C386.815308,51.131710 434.953888,58.442822 456.291168,95.906250 
	C479.594940,136.822418 451.149475,190.639709 404.770691,194.237747 
	C372.936371,196.707428 347.139404,177.931976 336.949951,153.896194 
	C325.744812,127.464539 332.603363,98.212845 355.347504,77.321548 
M356.723816,156.717758 
	C366.270416,169.908386 379.032349,177.584274 395.401703,178.273178 
	C416.065125,179.142776 432.103485,170.481827 442.087524,152.472198 
	C452.282471,134.082092 451.111328,115.446373 438.726135,98.428490 
	C426.567078,81.721283 409.411469,74.965378 389.173309,78.649078 
	C353.139282,85.207909 336.859772,124.150398 356.723816,156.717758 
z"/>
<path fill="#F0C002" opacity="1.000000" stroke="none" 
	d="
M356.503601,156.429062 
	C336.859772,124.150398 353.139282,85.207909 389.173309,78.649078 
	C409.411469,74.965378 426.567078,81.721283 438.726135,98.428490 
	C451.111328,115.446373 452.282471,134.082092 442.087524,152.472198 
	C432.103485,170.481827 416.065125,179.142776 395.401703,178.273178 
	C379.032349,177.584274 366.270416,169.908386 356.503601,156.429062 
M385.313812,165.076050 
	C388.108490,164.099457 391.158600,163.544052 393.634613,162.042114 
	C396.900360,160.061188 399.561859,160.084000 402.737946,162.119308 
	C408.675751,165.924393 414.960052,166.601303 420.975769,162.392517 
	C427.150574,158.072418 428.853577,151.872955 426.981079,144.768570 
	C425.972473,140.941788 426.831909,138.198288 429.928345,135.698029 
	C435.487518,131.209183 437.717102,125.269142 435.611084,118.346954 
	C433.479523,111.340675 428.082275,107.825790 421.028870,107.451302 
	C416.479553,107.209770 414.362549,105.005005 412.737061,101.139282 
	C410.059448,94.771416 405.198486,91.016281 398.088501,91.053505 
	C390.969635,91.090759 386.150879,94.918991 383.579926,101.324417 
	C381.969208,105.337425 379.585632,107.180504 375.154572,107.487595 
	C368.143188,107.973495 362.879761,111.402512 360.718658,118.525665 
	C358.629120,125.412956 360.913239,131.080139 366.184509,135.439011 
	C369.618927,138.278961 370.038361,141.189011 369.264587,145.427704 
	C367.162964,156.940216 373.228973,164.455582 385.313812,165.076050 
z"/>
<path fill="#61286C" opacity="1.000000" stroke="none" 
	d="
M384.888580,165.092545 
	C373.228973,164.455582 367.162964,156.940216 369.264587,145.427704 
	C370.038361,141.189011 369.618927,138.278961 366.184509,135.439011 
	C360.913239,131.080139 358.629120,125.412956 360.718658,118.525665 
	C362.879761,111.402512 368.143188,107.973495 375.154572,107.487595 
	C379.585632,107.180504 381.969208,105.337425 383.579926,101.324417 
	C386.150879,94.918991 390.969635,91.090759 398.088501,91.053505 
	C405.198486,91.016281 410.059448,94.771416 412.737061,101.139282 
	C414.362549,105.005005 416.479553,107.209770 421.028870,107.451302 
	C428.082275,107.825790 433.479523,111.340675 435.611084,118.346954 
	C437.717102,125.269142 435.487518,131.209183 429.928345,135.698029 
	C426.831909,138.198288 425.972473,140.941788 426.981079,144.768570 
	C428.853577,151.872955 427.150574,158.072418 420.975769,162.392517 
	C414.960052,166.601303 408.675751,165.924393 402.737946,162.119308 
	C399.561859,160.084000 396.900360,160.061188 393.634613,162.042114 
	C391.158600,163.544052 388.108490,164.099457 384.888580,165.092545 
M394.522980,114.914742 
	C390.837280,121.469780 384.143951,122.334328 376.473724,123.514732 
	C385.507477,130.131866 388.015808,138.163712 384.338257,149.544815 
	C393.843140,142.384369 402.269409,142.343109 411.275330,148.188721 
	C407.785217,137.838562 411.375122,130.028503 419.733887,123.501587 
	C407.035095,121.427773 407.035095,121.427773 397.937561,108.473755 
	C396.842926,110.561119 395.868256,112.419792 394.522980,114.914742 
z"/>
<path fill="#F6DE7D" opacity="1.000000" stroke="none" 
	d="
M394.708252,114.596603 
	C395.868256,112.419792 396.842926,110.561119 397.937561,108.473755 
	C407.035095,121.427773 407.035095,121.427773 419.733887,123.501587 
	C411.375122,130.028503 407.785217,137.838562 411.275330,148.188721 
	C402.269409,142.343109 393.843140,142.384369 384.338257,149.544815 
	C388.015808,138.163712 385.507477,130.131866 376.473724,123.514732 
	C384.143951,122.334328 390.837280,121.469780 394.708252,114.596603 
z"/>
</svg>