<?xml version="1.0" encoding="UTF-8"?>
<svg version="1.1" xmlns="http://www.w3.org/2000/svg" width="512" height="512">
<path d="M0 0 C1.12834259 -0.01210762 1.12834259 -0.01210762 2.27947998 -0.02445984 C3.86972779 -0.038264 5.46000478 -0.0490025 7.05029297 -0.05688477 C8.66594205 -0.06839039 10.28155355 -0.08881998 11.89697266 -0.1184082 C28.56740093 -0.42345898 28.56740093 -0.42345898 35.234375 4.23828125 C42.14740439 10.96938881 41.71667099 20.17846112 42.234375 29.23828125 C43.99602706 30.12603697 43.99602706 30.12603697 46.234375 30.23828125 C48.50305176 28.46477556 48.50305176 28.46477556 50.609375 25.98828125 C56.34083533 19.99587638 60.32816584 17.94331074 68.57421875 17.7421875 C76.87482486 19.29017131 82.71214205 26.15743291 88.42431641 31.87231445 C89.97937443 33.42080181 91.55686651 34.9436661 93.13671875 36.46679688 C98.41342039 41.65329983 103.36982543 46.52702652 104.234375 54.23828125 C103.91650429 61.84159366 100.43674171 65.97811047 95.234375 71.23828125 C92.75438756 73.74890976 92.75438756 73.74890976 91.234375 76.23828125 C91.59310155 78.85057718 91.59310155 78.85057718 92.234375 81.23828125 C93.46414063 81.191875 94.69390625 81.14546875 95.9609375 81.09765625 C97.5937256 81.06012089 99.22654011 81.02372263 100.859375 80.98828125 C101.66761719 80.95476562 102.47585938 80.92125 103.30859375 80.88671875 C108.81605521 80.79716653 111.86225709 81.57371219 116.234375 85.23828125 C121.02957477 90.55188099 121.40049307 94.69361897 121.4375 101.6328125 C121.44320007 102.45778732 121.44890015 103.28276215 121.45477295 104.13273621 C121.46421623 105.87859823 121.47075426 107.62447802 121.47460938 109.37036133 C121.48430086 112.03043043 121.51532412 114.68972203 121.546875 117.34960938 C121.55340689 119.04817251 121.55865663 120.74674115 121.5625 122.4453125 C121.5748468 123.23613724 121.5871936 124.02696198 121.59991455 124.8417511 C121.5777411 130.38790504 120.629114 134.67292472 116.69921875 138.8828125 C110.83233528 143.3692528 110.83233528 143.3692528 106.1015625 143.3359375 C105.29589844 143.33271484 104.49023438 143.32949219 103.66015625 143.32617188 C102.81839844 143.31779297 101.97664063 143.30941406 101.109375 143.30078125 C100.25988281 143.29626953 99.41039062 143.29175781 98.53515625 143.28710938 C96.43486591 143.27530999 94.3346117 143.25737431 92.234375 143.23828125 C91.31025083 145.99793634 91.31025083 145.99793634 91.234375 149.23828125 C93.19843057 151.82503473 93.19843057 151.82503473 95.984375 154.05078125 C100.61664101 158.39678363 103.62095989 161.78606302 104.234375 168.23828125 C104.03653207 179.79230822 93.1034008 187.55088403 85.546875 195.11328125 C84.70576172 195.96664062 83.86464844 196.82 82.99804688 197.69921875 C82.18529297 198.51390625 81.37253906 199.32859375 80.53515625 200.16796875 C79.80466064 200.90257324 79.07416504 201.63717773 78.3215332 202.39404297 C73.53472371 206.62372584 69.35021691 206.67845698 63.1328125 206.54296875 C58.12668341 206.01671798 55.63125564 203.7243838 52.27734375 200.15625 C51.58253906 199.42019531 50.88773437 198.68414062 50.171875 197.92578125 C49.54152344 197.20777344 48.91117187 196.48976562 48.26171875 195.75 C46.28517434 193.92220494 46.28517434 193.92220494 43.48828125 194.5078125 C42.37259766 194.86939453 42.37259766 194.86939453 41.234375 195.23828125 C41.28658203 196.48931641 41.28658203 196.48931641 41.33984375 197.765625 C41.71464461 213.34663225 41.71464461 213.34663225 36.58203125 219.0859375 C32.59805802 222.64877191 29.4965285 224.39011983 24.046875 224.30078125 C22.78875 224.28015625 21.530625 224.25953125 20.234375 224.23828125 C20.23806217 224.89904852 20.24174934 225.55981579 20.24554825 226.24060631 C20.33405037 242.35031992 20.40015782 258.45994846 20.44162369 274.5698452 C20.46221148 282.36061737 20.49025921 290.15122683 20.53613281 297.94189453 C20.57611701 304.73563489 20.60183529 311.52925736 20.61072898 318.32311213 C20.61592426 321.91739354 20.62805485 325.51133781 20.65729523 329.10551071 C20.6897436 333.1269677 20.69032704 337.14784596 20.68847656 341.16943359 C20.71004822 342.93889847 20.71004822 342.93889847 20.73205566 344.74411011 C20.67859946 355.51171657 17.88855705 363.40956563 10.45703125 371.2578125 C4.68238697 376.40323367 -1.55066152 379.33265207 -9.29240417 379.39649963 C-10.64741531 379.41118286 -10.64741531 379.41118286 -12.02980042 379.42616272 C-13.01407516 379.43191818 -13.99834991 379.43767365 -15.01245117 379.44360352 C-16.05552429 379.45350311 -17.09859741 379.46340271 -18.17327881 379.47360229 C-21.63502728 379.5052671 -25.09678882 379.53003079 -28.55859375 379.5546875 C-30.98163685 379.57528882 -33.40467661 379.59628606 -35.82771301 379.61766052 C-40.92459243 379.66166236 -46.02148361 379.70255752 -51.1184082 379.7409668 C-57.5795694 379.78965739 -64.04067608 379.84326623 -70.50178051 379.89894199 C-76.7290385 379.9524585 -82.95631402 380.00377204 -89.18359375 380.0546875 C-90.34001059 380.06424532 -91.49642742 380.07380314 -92.68788719 380.08365059 C-108.71410134 380.21383121 -124.73889252 380.26320986 -140.765625 380.23828125 C-140.72655375 381.10153267 -140.72655375 381.10153267 -140.68669319 381.98222351 C-138.75480789 424.67603781 -138.75480789 424.67603781 -138.140625 440.73828125 C-138.10074463 441.74093018 -138.06086426 442.7435791 -138.01977539 443.77661133 C-137.75601913 450.93214191 -137.72693044 458.07835509 -137.765625 465.23828125 C-136.75661133 465.21733398 -135.74759766 465.19638672 -134.70800781 465.17480469 C-130.95847813 465.1023134 -127.20901018 465.05644905 -123.45898438 465.01855469 C-121.83713357 464.99845981 -120.21535503 464.97117871 -118.59375 464.93652344 C-116.2602352 464.88790855 -113.92767943 464.86529236 -111.59375 464.84765625 C-110.87068665 464.82701111 -110.14762329 464.80636597 -109.40264893 464.78509521 C-105.915572 464.78354683 -104.10491332 464.97612383 -101.30737305 467.13769531 C-99.17177194 470.04738841 -99.25543075 471.84410943 -99.4375 475.3359375 C-99.89450469 477.9854766 -100.80244373 479.42052081 -102.765625 481.23828125 C-106.04255876 482.3305925 -108.45103984 482.36955159 -111.9012146 482.37872314 C-113.82761024 482.38728836 -113.82761024 482.38728836 -115.79292297 482.39602661 C-117.21920767 482.39727195 -118.64549247 482.39839705 -120.07177734 482.39941406 C-121.5714785 482.40404256 -123.07117847 482.40906726 -124.57087708 482.41445923 C-128.64735097 482.42758125 -132.7238084 482.43402767 -136.80030012 482.43846989 C-139.34667273 482.44140062 -141.89304083 482.44550541 -144.43941116 482.44997406 C-152.40520182 482.46364779 -160.37098219 482.47331534 -168.33678377 482.47717595 C-177.53461081 482.48165809 -186.73228935 482.49921369 -195.93007123 482.52817655 C-203.03843439 482.54978382 -210.14675574 482.5598797 -217.25515139 482.56121707 C-221.50139042 482.56226568 -225.74748983 482.56818553 -229.99369431 482.58603668 C-233.98771917 482.60250116 -237.9814992 482.60468086 -241.97554588 482.59589767 C-243.44088204 482.59512645 -244.90623126 482.59948125 -246.37153435 482.60935593 C-248.37300569 482.62205219 -250.37457516 482.61441536 -252.37606812 482.60577393 C-254.0557219 482.60797377 -254.0557219 482.60797377 -255.76930809 482.61021805 C-259.15542643 482.18989468 -261.03923334 481.25744795 -263.765625 479.23828125 C-265.31586964 476.13779197 -265.05554515 473.65933907 -264.765625 470.23828125 C-263.445625 468.58828125 -262.125625 466.93828125 -260.765625 465.23828125 C-249.545625 465.23828125 -238.325625 465.23828125 -226.765625 465.23828125 C-225.775625 437.18828125 -224.785625 409.13828125 -223.765625 380.23828125 C-233.005625 380.23828125 -242.245625 380.23828125 -251.765625 380.23828125 C-266.44124073 380.2061477 -281.11622471 380.1495252 -295.79153633 380.05437851 C-301.99661649 380.01455302 -308.20154494 379.98249347 -314.40673828 379.96728516 C-320.49516889 379.95211769 -326.58321526 379.91773182 -332.67147446 379.86997223 C-334.96861313 379.85522864 -337.26580626 379.84724431 -339.5629921 379.8463974 C-342.76262944 379.84402356 -345.96119334 379.81693133 -349.16064453 379.78417969 C-350.09058228 379.78921005 -351.02052002 379.79424042 -351.9786377 379.79942322 C-361.3467085 379.65165156 -369.15942567 376.69125112 -376.01171875 370.2265625 C-382.9770189 362.33048728 -385.07171406 353.43491789 -385.03305054 343.19439697 C-385.03758165 342.30596281 -385.04211276 341.41752864 -385.04678118 340.50217223 C-385.05940153 337.53687646 -385.05780633 334.57176491 -385.05615234 331.60644531 C-385.06213909 329.47550216 -385.06894498 327.34456118 -385.07650757 325.21362305 C-385.09416052 319.43247999 -385.09886268 313.65139617 -385.10013914 307.87022877 C-385.10156178 304.25574187 -385.10583353 300.64126997 -385.11113358 297.0267868 C-385.12963203 284.40944973 -385.13780448 271.79215488 -385.13623047 259.17480469 C-385.13502936 247.42608667 -385.15612633 235.67755245 -385.1877178 223.92888093 C-385.21389761 213.83182738 -385.22459703 203.73483379 -385.22331965 193.63774657 C-385.22281049 187.61178737 -385.22846836 181.58599152 -385.24967575 175.56006622 C-385.26908651 169.88991732 -385.26916297 164.22008711 -385.25464249 158.54992676 C-385.25255678 156.47433759 -385.25724098 154.39872833 -385.2693634 152.32317352 C-385.40723401 127.0727387 -385.40723401 127.0727387 -375.75 117.0234375 C-366.64797565 108.83519906 -358.1258413 106.9255392 -346.1607666 106.99777222 C-344.59468005 106.99520894 -344.59468005 106.99520894 -342.99695539 106.99259388 C-339.51157149 106.98930944 -336.02638169 107.00028558 -332.54101562 107.01123047 C-330.03740442 107.01179481 -327.53379289 107.01147758 -325.03018188 107.01034546 C-319.64676943 107.00989057 -314.26341696 107.01554967 -308.88002014 107.02682114 C-301.09663655 107.04310692 -293.31327638 107.04828729 -285.5298776 107.05079712 C-272.90043894 107.0551694 -260.27102617 107.06846581 -247.64160156 107.08740234 C-235.37662892 107.10577324 -223.11166332 107.11992382 -210.84667969 107.12841797 C-210.0900846 107.12894342 -209.33348951 107.12946886 -208.5539673 107.13001023 C-204.75817832 107.13262039 -200.96238929 107.13514779 -197.16660023 107.13763404 C-165.69958965 107.15835199 -134.23261127 107.19371394 -102.765625 107.23828125 C-102.78411499 106.11353394 -102.78411499 106.11353394 -102.80297852 104.96606445 C-102.81256592 103.97952881 -102.82215332 102.99299316 -102.83203125 101.9765625 C-102.85052124 100.51150269 -102.85052124 100.51150269 -102.86938477 99.0168457 C-102.69363977 94.31060142 -101.3848146 90.92637253 -98.11328125 87.515625 C-92.74288868 82.71292721 -88.72241631 82.09466703 -81.578125 82.17578125 C-80.82853516 82.18029297 -80.07894531 82.18480469 -79.30664062 82.18945312 C-77.45960117 82.20121771 -75.61260287 82.2191526 -73.765625 82.23828125 C-72.83759442 78.98606947 -72.83759442 78.98606947 -72.765625 75.23828125 C-74.73161229 72.41763012 -74.73161229 72.41763012 -77.578125 70.11328125 C-81.92487218 66.27539164 -84.18068366 63.63544058 -85.171875 57.87890625 C-85.49757204 49.57363162 -81.98546853 44.87124227 -76.60400391 38.79931641 C-74.22218459 36.29394738 -71.7897081 33.85272127 -69.328125 31.42578125 C-68.50763672 30.59369141 -67.68714844 29.76160156 -66.84179688 28.90429688 C-56.8890202 18.99917914 -56.8890202 18.99917914 -49.88671875 17.70703125 C-43.95269566 17.77613196 -40.36584809 18.14919405 -35.765625 22.23828125 C-34.81236328 23.26888672 -34.81236328 23.26888672 -33.83984375 24.3203125 C-33.15535156 25.05636719 -32.47085937 25.79242188 -31.765625 26.55078125 C-31.146875 27.26878906 -30.528125 27.98679687 -29.890625 28.7265625 C-27.75589105 30.58927451 -27.75589105 30.58927451 -24.515625 29.96875 C-23.608125 29.72769531 -22.700625 29.48664062 -21.765625 29.23828125 C-21.81203125 28.09230469 -21.8584375 26.94632813 -21.90625 25.765625 C-21.94379409 24.23570334 -21.98019141 22.70575324 -22.015625 21.17578125 C-22.04914063 20.42361328 -22.08265625 19.67144531 -22.1171875 18.89648438 C-22.21653346 13.15925538 -21.07543546 9.9470224 -17.765625 5.23828125 C-11.88213616 0.58051925 -7.31174003 0.07503234 0 0 Z " fill="#60276D" transform="translate(387.765625,14.76171875)"/>
<path d="M0 0 C1.05051595 -0.0034177 2.10103191 -0.0068354 3.18338168 -0.01035666 C6.70282394 -0.01694427 10.22150326 0.00505609 13.74087524 0.0269165 C16.26389549 0.02804479 18.78691704 0.0274115 21.30993652 0.02514648 C26.74147621 0.02423567 32.1727703 0.03557946 37.60425949 0.05809784 C45.45718144 0.09063399 53.3100105 0.10102649 61.16299255 0.10604981 C73.90450098 0.11479994 86.64590686 0.14140783 99.38735962 0.17926025 C111.76300545 0.21598766 124.1386234 0.24429584 136.51431274 0.2612915 C137.65895453 0.26286784 137.65895453 0.26286784 138.8267204 0.26447603 C142.65501866 0.26969626 146.48331712 0.27475107 150.31161571 0.27972364 C182.06105998 0.32117691 213.81037549 0.39191539 245.5597229 0.48101807 C245.66929321 1.22722412 245.77886353 1.97343018 245.89175415 2.74224854 C246.12958618 4.21782227 246.12958618 4.21782227 246.3722229 5.72320557 C246.52304321 6.69628662 246.67386353 7.66936768 246.82925415 8.67193604 C247.92825686 12.89824792 250.29718301 15.66175805 253.5597229 18.48101807 C255.85281253 19.62756288 257.35881946 19.67830924 259.9112854 19.79742432 C260.76206665 19.83931885 261.6128479 19.88121338 262.4894104 19.92437744 C263.37886353 19.96369385 264.26831665 20.00301025 265.1847229 20.04351807 C266.0819104 20.08670166 266.9790979 20.12988525 267.9034729 20.17437744 C270.12206573 20.28058667 272.3407717 20.38263001 274.5597229 20.48101807 C275.3253479 23.19976807 275.3253479 23.19976807 275.5597229 26.48101807 C273.7940979 28.82476807 273.7940979 28.82476807 271.3097229 30.98101807 C266.66381933 35.30178064 263.95825707 38.40661163 263.1222229 44.85601807 C264.25714811 54.25968408 270.46185331 59.98620093 276.93130493 66.31915283 C278.43689667 67.79564983 279.92278322 69.29008295 281.40737915 70.78765869 C288.46504605 78.07362158 288.46504605 78.07362158 297.6847229 81.87945557 C302.40280363 81.82047956 305.54496159 81.18483691 309.5597229 78.48101807 C311.84132999 76.11689354 314.06220949 73.72815308 316.2159729 71.24664307 C318.5597229 69.48101807 318.5597229 69.48101807 321.7784729 69.65289307 C324.5597229 70.48101807 324.5597229 70.48101807 325.5597229 71.48101807 C325.69322962 73.8337032 325.79101358 76.1884477 325.8722229 78.54351807 C326.18407346 84.37367778 326.54713541 89.94074784 330.5597229 94.48101807 C335.10907788 98.07918705 338.74794276 99.10978826 344.4347229 99.23101807 C345.46726196 99.27549072 345.46726196 99.27549072 346.5206604 99.32086182 C348.19973916 99.39082343 349.87973102 99.43827018 351.5597229 99.48101807 C351.67666623 116.03192019 351.76476463 132.58268774 351.81878376 149.1339035 C351.84453556 156.81941054 351.87962768 164.50466046 351.93692017 172.19000244 C351.98684843 178.89070071 352.01903591 185.59121272 352.03016537 192.29209185 C352.03666838 195.83832904 352.05188761 199.3840335 352.08837318 202.93009949 C352.12882929 206.89443745 352.12966627 210.85826026 352.12734985 214.82281494 C352.14532623 215.99094727 352.16330261 217.15907959 352.18182373 218.36260986 C352.13816329 225.2738176 351.43943137 230.33666782 346.5597229 235.48101807 C341.39430195 240.07607137 335.85104136 240.03581319 329.21817017 239.93511963 C328.20277664 239.93570374 327.18738312 239.93628784 326.14122009 239.93688965 C322.80250236 239.93411458 319.46468992 239.90304889 316.12612915 239.87164307 C313.80443306 239.86417865 311.48273065 239.85848667 309.161026 239.85449219 C303.06337963 239.83925183 296.96611703 239.79998322 290.86862183 239.75567627 C284.64135936 239.71468942 278.41403462 239.69647385 272.18667603 239.67633057 C259.97752345 239.63348788 247.76865514 239.56525547 235.5597229 239.48101807 C235.56747427 238.83499949 235.57522564 238.1889809 235.5832119 237.523386 C235.76843147 221.67484378 235.87365204 205.82797662 235.89394188 189.97844887 C235.90560885 182.31297152 235.9426176 174.64930628 236.04312134 166.98443604 C236.13083549 160.28973167 236.16709972 153.59687803 236.14599478 146.9016031 C236.13653683 143.36799652 236.14982086 139.83837006 236.22513962 136.30546951 C236.62266384 116.59169724 233.06452759 103.10686203 222.41736221 86.45486069 C219.21174571 81.32307923 216.38060777 75.98559796 213.4972229 70.66851807 C208.61208002 61.1507639 208.61208002 61.1507639 200.5597229 54.48101807 C198.55416789 54.20694422 198.55416789 54.20694422 196.3097229 54.16851807 C195.56206665 54.13113525 194.8144104 54.09375244 194.0440979 54.05523682 C190.43211536 54.67427156 188.44399817 56.22698348 185.5597229 58.48101807 C183.96903964 60.9114366 182.6669257 63.14941721 181.3956604 65.73101807 C181.03630402 66.42614502 180.67694763 67.12127197 180.30670166 67.83746338 C179.16794769 70.04478455 178.05011479 72.26181276 176.9347229 74.48101807 C175.80951191 76.69865755 174.67984123 78.91373541 173.5413208 81.12457275 C172.83614311 82.49594697 172.13890564 83.87144283 171.45092773 85.25152588 C169.57465966 88.92263118 167.66000212 91.75049692 164.5597229 94.48101807 C163.13600656 91.97498184 161.71352174 89.46825691 160.29238892 86.96075439 C159.09254821 84.84385877 157.89120537 82.72781387 156.68838501 80.61260986 C153.012009 74.12650729 149.47824291 67.6141275 146.21987915 60.90679932 C143.70040572 57.22540402 140.5962439 54.94262949 136.2159729 53.94976807 C135.5044104 53.96008057 134.7928479 53.97039307 134.0597229 53.98101807 C133.3481604 53.97070557 132.6365979 53.96039307 131.9034729 53.94976807 C127.15999145 55.0249572 124.14702906 57.60529034 121.47671509 61.5869751 C120.83785329 62.79620291 120.21521091 64.01409937 119.6065979 65.23883057 C119.26147156 65.90075409 118.91634521 66.56267761 118.5607605 67.24465942 C117.46248143 69.35794146 116.38546791 71.48119141 115.3097229 73.60601807 C114.27006222 75.62750083 113.22631704 77.64675541 112.17835045 79.66394424 C111.45530411 81.06629484 110.74051308 82.47295453 110.03672218 83.88506699 C108.21490435 87.4973474 106.33599296 90.90071882 103.97631836 94.1907959 C94.80676669 107.49866541 95.14717048 121.14410518 95.34385443 136.75882006 C95.37872119 140.38231656 95.35605111 144.0054945 95.34002686 147.62905884 C95.31828093 154.46065945 95.34672121 161.29104807 95.3941499 168.12248075 C95.44571816 175.91242691 95.43988422 183.70201948 95.42972922 191.49209142 C95.41013616 207.48883714 95.46100118 223.48453763 95.5597229 239.48101807 C81.9731061 239.57369923 68.38656451 239.64477383 54.79969597 239.68826675 C48.49075021 239.70914121 42.18202074 239.73745697 35.87319946 239.78277588 C29.78481037 239.82623763 23.69662932 239.85015624 17.60809708 239.86052704 C15.28525645 239.86791773 12.9624272 239.88234994 10.63967514 239.90393829 C7.38604884 239.93297575 4.13328215 239.9369738 0.87954712 239.93511963 C-0.08070877 239.94950073 -1.04096466 239.96388184 -2.03031921 239.97869873 C-7.68522678 239.94382915 -10.974504 239.29670372 -15.4402771 235.48101807 C-20.11730385 230.17196067 -20.5889704 226.92664363 -20.58744812 220.00476074 C-20.59112481 219.11707087 -20.5948015 218.229381 -20.5985896 217.31479144 C-20.60965568 214.322343 -20.61347522 211.32992925 -20.61727905 208.33746338 C-20.62354148 206.19914641 -20.63018808 204.06083054 -20.63719177 201.92251587 C-20.65462174 196.10010687 -20.66515892 190.27770609 -20.6733973 184.45527744 C-20.67854309 180.81992257 -20.684619 177.18457028 -20.69090843 173.54921722 C-20.70996584 162.1817169 -20.72419596 150.8142231 -20.7325204 139.44670987 C-20.74229665 126.3124361 -20.76862413 113.17833069 -20.80902129 100.04411626 C-20.8391525 89.90054022 -20.85398642 79.75701252 -20.85730141 69.61339259 C-20.85965527 63.55117887 -20.86865944 57.48914489 -20.89376259 51.42697906 C-20.91699588 45.7240955 -20.92129555 40.02151064 -20.91100121 34.31859207 C-20.91050458 32.22477603 -20.91686203 30.13094553 -20.93055725 28.03717422 C-20.94820406 25.17949272 -20.94120539 22.32289153 -20.92802429 19.46520996 C-20.93899354 18.63582452 -20.94996278 17.80643908 -20.96126443 16.95192075 C-20.90242849 11.6716832 -20.03289584 8.60072261 -16.4402771 4.48101807 C-11.25506317 -0.20005135 -6.63767525 -0.07902875 0 0 Z " fill="#FEE2E2" transform="translate(40.440277099609375,138.51898193359375)"/>
<path d="M0 0 C9.9 0 19.8 0 30 0 C30.375 9.75 30.375 9.75 30.47802734 12.80371094 C30.53144287 14.00688965 30.53144287 14.00688965 30.5859375 15.234375 C30.6173584 16.05131836 30.6487793 16.86826172 30.68115234 17.70996094 C31.03406465 20.24466038 31.59512488 21.86205862 33 24 C35.51841817 25.23321624 37.8789218 26.24440177 40.5 27.1875 C41.8647062 27.70149682 43.22929486 28.21580585 44.59375 28.73046875 C45.7178125 29.14941406 46.841875 29.56835938 48 30 C48.66 30.33 49.32 30.66 50 31 C53.54635678 31.56741709 55.97055052 31.68629965 59.02734375 29.6484375 C61.10507408 27.8379009 63.06320165 25.96027469 65 24 C65.91072266 23.10861328 65.91072266 23.10861328 66.83984375 22.19921875 C68.24295725 20.81591391 69.62406102 19.41033745 71 18 C74.46629835 19.48653506 76.69022036 21.45722351 79.328125 24.1328125 C80.52695312 25.34130859 80.52695312 25.34130859 81.75 26.57421875 C82.575 27.41597656 83.4 28.25773437 84.25 29.125 C85.09046875 29.97449219 85.9309375 30.82398437 86.796875 31.69921875 C88.86915683 33.79504923 90.93662393 35.89540713 93 38 C89.72734494 41.92773772 86.4531823 45.59717129 82.625 49 C80.00833461 51.62671017 79.08896827 52.63728323 78.1875 56.3125 C79.35334211 61.60362958 81.62717024 66.15488054 84 71 C84.5724122 72.37090318 85.13673812 73.74525633 85.6875 75.125 C86.68364209 78.10345659 86.68364209 78.10345659 89 79 C90.59262066 79.15175549 92.19064856 79.24900325 93.7890625 79.31640625 C94.63678223 79.35451416 95.48450195 79.39262207 96.35791016 79.43188477 C97.4360498 79.47498779 98.51418945 79.51809082 99.625 79.5625 C103.04875 79.706875 106.4725 79.85125 110 80 C110 89.9 110 99.8 110 110 C99.6875 110.4375 99.6875 110.4375 96.44799805 110.56811523 C95.60277588 110.60622314 94.75755371 110.64433105 93.88671875 110.68359375 C93.02264404 110.72025146 92.15856934 110.75690918 91.26831055 110.79467773 C88.8352174 110.92747354 88.8352174 110.92747354 86 112 C85.11457756 113.79403039 85.11457756 113.79403039 84.5625 116 C83.54780194 119.39492064 82.35134954 122.49601275 80.8125 125.6875 C79.17790674 129.3781051 78.04856911 131.93479527 79 136 C81.06047674 138.94526969 83.46987262 141.45521937 86 144 C86.66773438 144.68191406 87.33546875 145.36382812 88.0234375 146.06640625 C89.66737253 147.72711613 91.3249472 149.37076931 93 151 C91.49280493 154.67689348 89.36529009 156.6763138 86.375 159.25 C81.72347454 163.32684572 77.3178844 167.57356543 73 172 C69.3758636 170.48099978 67.142376 168.31929546 64.4375 165.5 C60.00490222 160.68704653 60.00490222 160.68704653 54 158.5625 C49.42563466 158.66910597 45.70237559 160.78540536 41.6640625 162.765625 C39.37499316 163.8262495 37.31604718 164.54236322 34.875 165.125 C33.92625 165.41375 32.9775 165.7025 32 166 C31.0268319 168.9195043 30.8070454 171.05444951 30.68359375 174.10546875 C30.64548584 174.99129639 30.60737793 175.87712402 30.56811523 176.78979492 C30.52501221 177.9110376 30.48190918 179.03228027 30.4375 180.1875 C30.293125 183.755625 30.14875 187.32375 30 191 C20.1 191 10.2 191 0 191 C-0.375 180.1875 -0.375 180.1875 -0.47802734 176.78979492 C-0.53144287 175.46105347 -0.53144287 175.46105347 -0.5859375 174.10546875 C-0.6173584 173.19949951 -0.6487793 172.29353027 -0.68115234 171.36010742 C-0.86027919 168.73474608 -0.86027919 168.73474608 -3 166 C-5.95941672 164.60807561 -5.95941672 164.60807561 -9.375 163.4375 C-15.83123787 161.09838899 -15.83123787 161.09838899 -17.9765625 159.84765625 C-21.29261949 158.45849724 -23.43310064 158.45990167 -27 159 C-29.84291705 161.00240888 -32.10066657 163.43813816 -34.4375 166 C-35.07365234 166.66773438 -35.70980469 167.33546875 -36.36523438 168.0234375 C-37.92718227 169.66759318 -39.47046313 171.32574712 -41 173 C-46.06623768 168.76183463 -50.80038069 164.32591037 -55.4375 159.625 C-56.07365234 158.98433594 -56.70980469 158.34367188 -57.36523438 157.68359375 C-58.91250332 156.12469121 -60.45736492 154.56348584 -62 153 C-60.23116268 149.1789065 -57.97905777 146.80714922 -54.9375 143.875 C-50.26603629 139.66190166 -50.26603629 139.66190166 -48.765625 133.859375 C-49.03117664 129.48662469 -50.08213483 126.25127268 -51.75 122.25 C-52.00265625 121.59128906 -52.2553125 120.93257813 -52.515625 120.25390625 C-54.09003852 116.37297692 -55.41553048 114.15218979 -59 112 C-61.40554294 111.50241248 -61.40554294 111.50241248 -63.984375 111.48828125 C-65.24846191 111.43861206 -65.24846191 111.43861206 -66.53808594 111.38793945 C-67.59801758 111.36304443 -68.65794922 111.33814941 -69.75 111.3125 C-73.1325 111.209375 -76.515 111.10625 -80 111 C-80 101.43 -80 91.86 -80 82 C-70.25 81.6875 -70.25 81.6875 -67.19628906 81.61206055 C-66.39416992 81.57894775 -65.59205078 81.54583496 -64.765625 81.51171875 C-63.54020996 81.47244263 -63.54020996 81.47244263 -62.29003906 81.43237305 C-59.45700603 80.8974795 -58.09063193 79.96828518 -56 78 C-54.95577991 76.24245863 -54.95577991 76.24245863 -54.33203125 74.27734375 C-54.07873047 73.57416016 -53.82542969 72.87097656 -53.56445312 72.14648438 C-53.31630859 71.41751953 -53.06816406 70.68855469 -52.8125 69.9375 C-52.29876305 68.48807342 -51.78446569 67.03884533 -51.26953125 65.58984375 C-50.85058594 64.40519531 -50.43164062 63.22054687 -50 62 C-49.67 61.34 -49.34 60.68 -49 60 C-48.38863263 57.06543664 -48.18692303 55.81489306 -49 53 C-51.68342811 49.34537301 -54.77990043 46.18278054 -58 43 C-58.75796875 42.24074219 -59.5159375 41.48148438 -60.296875 40.69921875 C-60.85890625 40.13847656 -61.4209375 39.57773438 -62 39 C-60.51346494 35.53370165 -58.54277649 33.30977964 -55.8671875 30.671875 C-55.06152344 29.87265625 -54.25585938 29.0734375 -53.42578125 28.25 C-52.58402344 27.425 -51.74226563 26.6 -50.875 25.75 C-50.02550781 24.90953125 -49.17601562 24.0690625 -48.30078125 23.203125 C-46.20495077 21.13084317 -44.10459287 19.06337607 -42 17 C-38.07226228 20.27265506 -34.40282871 23.5468177 -31 27.375 C-28.37328983 29.99166539 -27.36271677 30.91103173 -23.6875 31.8125 C-18.39637042 30.64665789 -13.84511946 28.37282976 -9 26 C-7.62909682 25.4275878 -6.25474367 24.86326188 -4.875 24.3125 C-1.89654341 23.31635791 -1.89654341 23.31635791 -1 21 C-0.84824451 19.40737934 -0.75099675 17.80935144 -0.68359375 16.2109375 C-0.64548584 15.36321777 -0.60737793 14.51549805 -0.56811523 13.64208984 C-0.52501221 12.5639502 -0.48190918 11.48581055 -0.4375 10.375 C-0.293125 6.95125 -0.14875 3.5275 0 0 Z " fill="#86808D" transform="translate(382,32)"/>
<path d="M0 0 C11.04628583 7.60933005 20.11344863 18.71245057 22.875 32.16796875 C24.25668598 48.41064937 22.8665994 61.57402671 12.80078125 74.89453125 C5.43252384 83.59296089 -5.46574823 91.73583522 -17.125 93.16796875 C-33.48165458 94.32008177 -46.31196425 92.75850242 -59.625 82.38671875 C-69.21555643 73.87509992 -76.36466847 62.164992 -77.26196289 49.18701172 C-78.03939565 32.64549056 -74.14925049 19.91159776 -63.125 7.16796875 C-44.90188788 -8.4265259 -21.21661287 -12.4382393 0 0 Z " fill="#61286B" transform="translate(424.125,83.83203125)"/>
<path d="M0 0 C3.58143778 2.78273646 6.81411237 5.77579413 10 9 C10.70898438 9.68707031 11.41796875 10.37414062 12.1484375 11.08203125 C23.55857224 22.86376042 28.60389778 38.53205351 28.5 54.6875 C28.49427979 55.73260742 28.48855957 56.77771484 28.48266602 57.85449219 C28.08918936 75.07207676 21.48538288 90.07387072 9.5625 102.62109375 C-7.37552793 118.34557395 -25.65581752 121.85787196 -48.10253906 121.18359375 C-53.56886001 120.83722761 -58.07778899 119.4293493 -63 117 C-64.29164063 116.43925781 -64.29164063 116.43925781 -65.609375 115.8671875 C-82.25954695 108.24847246 -93.88375933 94.34672985 -101 77.7265625 C-106.85236548 61.76972224 -105.27945625 42.30065157 -98.46875 26.9765625 C-89.88300201 9.57672215 -76.15746439 -2.23843376 -58 -9 C-38.51254984 -14.90842904 -16.83309773 -11.11247467 0 0 Z M-76.09765625 21.515625 C-83.58789256 31.93941311 -88.38260509 40.84274771 -88.25 53.9375 C-88.25773437 54.69740234 -88.26546875 55.45730469 -88.2734375 56.24023438 C-88.22972878 69.03596145 -82.83323063 82.0224181 -73.92578125 91.265625 C-63.38526232 100.75850615 -52.48493289 105.4113989 -38.3125 105.5 C-37.01252075 105.50954712 -37.01252075 105.50954712 -35.6862793 105.51928711 C-22.80345208 105.26625122 -11.13142944 100.08055828 -1.6875 91.3125 C7.89693808 81.00922907 12.59037082 69.02661495 12.4375 55.125 C12.42505249 53.66646606 12.42505249 53.66646606 12.41235352 52.1784668 C12.24596394 45.12319333 11.46945567 39.24913825 8 33 C7.51402344 32.08347656 7.02804687 31.16695312 6.52734375 30.22265625 C0.48029487 19.80114648 -7.84790182 12.50679086 -19 8 C-19.72058594 7.68160156 -20.44117188 7.36320312 -21.18359375 7.03515625 C-39.81039033 0.02993119 -63.37569585 6.25874884 -76.09765625 21.515625 Z " fill="#60276C" transform="translate(435,72)"/>
<path d="M0 0 C15.18 0 30.36 0 46 0 C46 39.6 46 79.2 46 120 C30.82 120 15.64 120 0 120 C0 80.4 0 40.8 0 0 Z " fill="#E6296A" transform="translate(214,258)"/>
<path d="M0 0 C15.18 0 30.36 0 46 0 C46 39.6 46 79.2 46 120 C30.82 120 15.64 120 0 120 C0 80.4 0 40.8 0 0 Z " fill="#5FC8FA" transform="translate(152,258)"/>
<path d="M0 0 C16.5 0 33 0 50 0 C51.20339531 28.73106313 52.26132034 57.25476296 52 86 C33.85 86 15.7 86 -3 86 C-3 54.89296342 -3 54.89296342 -2.59765625 44.7265625 C-2.55563583 43.57803802 -2.51361542 42.42951355 -2.47032166 41.2461853 C-2.38278668 38.88620028 -2.2928679 36.52630234 -2.20043945 34.16650391 C-2.05958007 30.55003268 -1.92878019 26.93328433 -1.79882812 23.31640625 C-1.71151891 20.99476973 -1.62365067 18.67315415 -1.53515625 16.3515625 C-1.49656998 15.28088531 -1.4579837 14.21020813 -1.41822815 13.10708618 C-1.37826218 12.11349091 -1.3382962 11.11989563 -1.29711914 10.09619141 C-1.24715538 8.79604599 -1.24715538 8.79604599 -1.19618225 7.46963501 C-1 5 -1 5 0 0 Z " fill="#86818D" transform="translate(181,394)"/>
<path d="M0 0 C11.04628583 7.60933005 20.11344863 18.71245057 22.875 32.16796875 C24.25668598 48.41064937 22.8665994 61.57402671 12.80078125 74.89453125 C5.43252384 83.59296089 -5.46574823 91.73583522 -17.125 93.16796875 C-33.48165458 94.32008177 -46.31196425 92.75850242 -59.625 82.38671875 C-69.21555643 73.87509992 -76.36466847 62.164992 -77.26196289 49.18701172 C-78.03939565 32.64549056 -74.14925049 19.91159776 -63.125 7.16796875 C-44.90188788 -8.4265259 -21.21661287 -12.4382393 0 0 Z M-38.125 10.16796875 C-42.38368895 15.68728657 -42.38368895 15.68728657 -44.125 22.16796875 C-45.8575 22.04421875 -45.8575 22.04421875 -47.625 21.91796875 C-52.50840059 21.92662726 -56.12807315 23.41177307 -60.125 26.16796875 C-64.36225966 30.73117146 -65.48448029 33.69687895 -65.40625 39.7890625 C-64.81596789 44.78186531 -62.30652446 48.16498576 -58.48828125 51.40625 C-55.38649561 55.03098132 -55.68852799 56.91923071 -56 61.60546875 C-56.34575332 67.13194522 -56.08849311 70.42082756 -53.125 75.16796875 C-48.5254673 79.31876655 -45.70337209 80.4922135 -39.640625 80.47265625 C-36.07986139 80.04138364 -33.29855432 78.63890797 -30.16796875 76.9453125 C-27.66997409 75.9948327 -26.59547463 76.23647832 -24.125 77.16796875 C-23.238125 77.68359375 -22.35125 78.19921875 -21.4375 78.73046875 C-16.07412467 81.05797125 -11.37329717 80.94622546 -5.875 79.04296875 C-2.04415651 76.43103001 0.77661815 73.36473246 2.875 69.16796875 C3.05684874 64.63981425 3.05684874 64.63981425 2.40234375 60.17578125 C1.90120595 58.01120285 1.61352527 56.38178815 1.875 54.16796875 C3.43371978 52.06112773 5.10476355 50.48711159 7.11328125 48.80859375 C10.5171718 45.6386735 11.23552523 42.4786894 11.4375 37.91796875 C11.32727479 32.42875336 9.81634554 29.52328283 5.94140625 25.6953125 C1.12209443 22.13321246 -4.24699372 21.87406844 -10.125 22.16796875 C-10.16625 21.50796875 -10.2075 20.84796875 -10.25 20.16796875 C-11.80062642 14.85153531 -15.28652873 10.75799795 -19.4375 7.16796875 C-25.9241106 4.7543462 -32.92245879 5.26271561 -38.125 10.16796875 Z " fill="#EFC001" transform="translate(424.125,83.83203125)"/>
<path d="M0 0 C7.26 0 14.52 0 22 0 C22 39.27 22 78.54 22 119 C14.74 119 7.48 119 0 119 C0 79.73 0 40.46 0 0 Z " fill="#FE4972" transform="translate(214,259)"/>
<path d="M0 0 C7.26 0 14.52 0 22 0 C22.10153038 30.54936385 22.04719716 61.08055316 21.5 91.625 C21.48804218 92.29281998 21.47608437 92.96063995 21.46376419 93.6486969 C21.31765403 101.76596914 21.16242562 109.88303896 21 118 C14.07 118 7.14 118 0 118 C0 79.06 0 40.12 0 0 Z " fill="#72D6F9" transform="translate(152,259)"/>
<path d="M0 0 C5.28 0.33 10.56 0.66 16 1 C16.11587995 17.55091543 16.20504171 34.10166286 16.25906086 50.65288544 C16.28481266 58.33839247 16.31990478 66.0236424 16.37719727 73.70898438 C16.42712553 80.40968265 16.45931301 87.11019465 16.47044247 93.81107378 C16.47694548 97.35731097 16.49216471 100.90301544 16.52865028 104.44908142 C16.56910639 108.41341938 16.56994337 112.3772422 16.56762695 116.34179688 C16.58560333 117.5099292 16.60357971 118.67806152 16.62210083 119.8815918 C16.57844039 126.79279953 15.87970847 131.85564975 11 137 C5.83457905 141.5950533 0.29131846 141.55479513 -6.34155273 141.45410156 C-7.35694626 141.45468567 -8.37233978 141.45526978 -9.41850281 141.45587158 C-12.75722054 141.45309652 -16.09503298 141.42203083 -19.43359375 141.390625 C-21.75528984 141.38316058 -24.07699225 141.3774686 -26.3986969 141.37347412 C-32.49634327 141.35823376 -38.59360587 141.31896516 -44.69110107 141.2746582 C-50.91836354 141.23367135 -57.14568828 141.21545578 -63.37304688 141.1953125 C-75.58219945 141.15246981 -87.79106776 141.08423741 -100 141 C-100 140.67 -100 140.34 -100 140 C-68.65 140 -37.3 140 -5 140 C-4.34 138.35 -3.68 136.7 -3 135 C-2.63532623 134.16516083 -2.27065247 133.33032166 -1.89492798 132.47018433 C-0.5268869 127.16545053 -0.691103 121.93411382 -0.68115234 116.47705078 C-0.67110672 115.21796402 -0.6610611 113.95887726 -0.65071106 112.66163635 C-0.62348859 109.22203152 -0.60828479 105.78246748 -0.59528303 102.34278345 C-0.57961841 98.74327593 -0.55283886 95.14385127 -0.5272522 91.54440308 C-0.48052324 84.73414363 -0.44375074 77.9238685 -0.41057932 71.11353099 C-0.37231628 63.35774449 -0.32291711 55.60204133 -0.27259517 47.84632516 C-0.16936285 31.89760943 -0.08046926 15.94884773 0 0 Z " fill="#FACBCD" transform="translate(376,237)"/>
<path d="M0 0 C5.28 0 10.56 0 16 0 C15.42345962 28.69047019 14.38136525 57.33717369 13 86 C7.72 86 2.44 86 -3 86 C-3.11615034 68.70134313 -2.8774929 51.45241198 -2.20043945 34.16650391 C-2.05958007 30.55003268 -1.92878019 26.93328433 -1.79882812 23.31640625 C-1.71151891 20.99476973 -1.62365067 18.67315415 -1.53515625 16.3515625 C-1.49656998 15.28088531 -1.4579837 14.21020813 -1.41822815 13.10708618 C-1.37826218 12.11349091 -1.3382962 11.11989563 -1.29711914 10.09619141 C-1.24715538 8.79604599 -1.24715538 8.79604599 -1.19618225 7.46963501 C-1 5 -1 5 0 0 Z " fill="#A2A1A3" transform="translate(181,394)"/>
<path d="M0 0 C0.33 0 0.66 0 1 0 C0.53268188 4.75106756 -0.05499895 9.33405543 -1.0625 14 C-3.0871371 24.83865874 -4.01393747 40.05970187 1.07421875 50.125 C2 52 2 52 1.9375 54.6875 C2.02163508 59.14665908 3.45190816 62.85332542 5 67 C3.23000902 68.93827536 1.45904239 70.87564344 -0.3125 72.8125 C-1.06176758 73.63331055 -1.06176758 73.63331055 -1.82617188 74.47070312 C-5.90653413 78.92937711 -5.90653413 78.92937711 -7.91796875 80.44921875 C-9.28894823 82.12200011 -9.28894823 82.12200011 -9.16015625 85.19140625 C-7.54104229 90.50667934 -4.439742 93.21982945 -0.4375 96.9375 C0.27341797 97.62134766 0.98433594 98.30519531 1.71679688 99.00976562 C3.46503967 100.68760938 5.22569351 102.3498154 7 104 C6.67 104.66 6.34 105.32 6 106 C-0.6 99.4 -7.2 92.8 -14 86 C-11.99766723 81.99533447 -10.12427254 79.94714043 -6.9375 76.875 C-2.26603629 72.66190166 -2.26603629 72.66190166 -0.765625 66.859375 C-1.03117664 62.48662469 -2.08213483 59.25127268 -3.75 55.25 C-4.00265625 54.59128906 -4.2553125 53.93257812 -4.515625 53.25390625 C-6.09003852 49.37297692 -7.41553048 47.15218979 -11 45 C-13.40554294 44.50241248 -13.40554294 44.50241248 -15.984375 44.48828125 C-17.24846191 44.43861206 -17.24846191 44.43861206 -18.53808594 44.38793945 C-19.59801758 44.36304443 -20.65794922 44.33814941 -21.75 44.3125 C-25.1325 44.209375 -28.515 44.10625 -32 44 C-32 34.43 -32 24.86 -32 15 C-22.25 14.6875 -22.25 14.6875 -19.19628906 14.61206055 C-18.39416992 14.57894775 -17.59205078 14.54583496 -16.765625 14.51171875 C-15.54020996 14.47244263 -15.54020996 14.47244263 -14.29003906 14.43237305 C-11.47182443 13.9002773 -10.08306626 12.95080355 -8 11 C-6.71991738 7.91222828 -6.71991738 7.91222828 -6 5 C-5.67 5.66 -5.34 6.32 -5 7 C-3.68 7 -2.36 7 -1 7 C-0.67 4.69 -0.34 2.38 0 0 Z " fill="#86818D" transform="translate(334,99)"/>
<path d="M0 0 C3.88830904 1.20184098 5.10209995 1.76087925 7.4375 5.0625 C8.01835206 8.42694415 7.94990536 11.74992191 7.8984375 15.15625 C7.89706284 16.63176331 7.89706284 16.63176331 7.8956604 18.13708496 C7.88962362 20.21497427 7.87387536 22.29285485 7.84912109 24.37060547 C7.81263444 27.55078201 7.80810166 30.72979233 7.80859375 33.91015625 C7.79876157 35.92969757 7.78710413 37.94923099 7.7734375 39.96875 C7.77121185 40.91987671 7.76898621 41.87100342 7.76669312 42.85095215 C7.75393341 43.7386731 7.74117371 44.62639404 7.72802734 45.54101562 C7.72040375 46.31948853 7.71278015 47.09796143 7.70492554 47.90002441 C7.40218211 50.34809007 6.70873009 51.95868538 5.4375 54.0625 C2.76116974 56.1440902 1.31996332 56.05837591 -2.125 55.9375 C-5.5625 55.0625 -5.5625 55.0625 -7.25109863 53.29515076 C-8.73086717 50.77585619 -8.95165489 49.36382755 -8.98242188 46.46508789 C-8.99833374 45.56057388 -9.01424561 44.65605988 -9.03063965 43.72413635 C-9.03084106 42.75427292 -9.03104248 41.78440948 -9.03125 40.78515625 C-9.04267029 39.27990639 -9.04267029 39.27990639 -9.05432129 37.74424744 C-9.06511894 35.62355028 -9.06797676 33.50279995 -9.06347656 31.38208008 C-9.06250446 28.13988442 -9.10412634 24.90005697 -9.1484375 21.65820312 C-9.15364476 19.5963591 -9.15633269 17.53450685 -9.15625 15.47265625 C-9.17264526 14.50481705 -9.18904053 13.53697784 -9.20593262 12.53981018 C-9.15847549 7.9107625 -9.05846827 5.73681803 -6.24804688 1.91577148 C-3.5625 0.0625 -3.5625 0.0625 0 0 Z " fill="#62296F" transform="translate(49.5625,264.9375)"/>
<path d="M0 0 C1.76961907 2.30050479 3.38352639 4.60621913 4.9375 7.0625 C7.42965551 10.6119336 9.36526927 12.53682629 13.578125 13.73046875 C14.45984375 13.88128906 15.3415625 14.03210938 16.25 14.1875 C17.58804688 14.42533203 17.58804688 14.42533203 18.953125 14.66796875 C19.96632813 14.83232422 19.96632813 14.83232422 21 15 C19.74248875 17.70218696 18.40096639 19.8860622 16.4375 22.125 C12.89209559 26.30675905 12.88431236 28.19986051 12.9375 33.625 C12.94652344 34.81351563 12.95554687 36.00203125 12.96484375 37.2265625 C12.97644531 38.14179688 12.98804688 39.05703125 13 40 C12.45472656 39.7834375 11.90945313 39.566875 11.34765625 39.34375 C4.47695754 36.80687663 -1.54400863 35.49193104 -8.4375 38.5 C-9.283125 38.995 -10.12875 39.49 -11 40 C-11.66 40 -12.32 40 -13 40 C-12.93039062 39.0821875 -12.86078125 38.164375 -12.7890625 37.21875 C-12.27807924 28.72264913 -12.27807924 28.72264913 -15.875 21.3125 C-16.90152 20.19423788 -17.94181205 19.08834357 -19 18 C-19.66 17.01 -20.32 16.02 -21 15 C-20.19175781 14.84144531 -19.38351562 14.68289062 -18.55078125 14.51953125 C-10.12714177 12.75677356 -10.12714177 12.75677356 -4 7 C-2.56210538 4.70223484 -1.27037993 2.39960654 0 0 Z " fill="#F5DE7C" transform="translate(397,107)"/>
<path d="M0 0 C2.76138384 2.4578841 4.31937371 5.12507467 6.06640625 8.3671875 C6.63423828 9.41777344 7.20207031 10.46835938 7.78710938 11.55078125 C8.37298828 12.64777344 8.95886719 13.74476563 9.5625 14.875 C10.15224609 15.96425781 10.74199219 17.05351562 11.34960938 18.17578125 C13.8112284 22.75176019 16.06611858 27.16529645 18 32 C6.45 32 -5.1 32 -17 32 C-15.42984241 28.07460601 -13.77405836 24.56308152 -11.77734375 20.859375 C-11.15666016 19.70695312 -10.53597656 18.55453125 -9.89648438 17.3671875 C-9.57510498 16.77389648 -9.25372559 16.18060547 -8.92260742 15.56933594 C-7.9339074 13.74336504 -6.95006391 11.91483868 -5.96679688 10.0859375 C-1.1334707 1.1334707 -1.1334707 1.1334707 0 0 Z " fill="#867E8D" transform="translate(236,211)"/>
<path d="M0 0 C2.76138384 2.4578841 4.31937371 5.12507467 6.06640625 8.3671875 C6.63423828 9.41777344 7.20207031 10.46835938 7.78710938 11.55078125 C8.37298828 12.64777344 8.95886719 13.74476563 9.5625 14.875 C10.15224609 15.96425781 10.74199219 17.05351562 11.34960938 18.17578125 C13.8112284 22.75176019 16.06611858 27.16529645 18 32 C6.45 32 -5.1 32 -17 32 C-15.42984241 28.07460601 -13.77405836 24.56308152 -11.77734375 20.859375 C-11.15666016 19.70695312 -10.53597656 18.55453125 -9.89648438 17.3671875 C-9.57510498 16.77389648 -9.25372559 16.18060547 -8.92260742 15.56933594 C-7.9339074 13.74336504 -6.95006391 11.91483868 -5.96679688 10.0859375 C-1.1334707 1.1334707 -1.1334707 1.1334707 0 0 Z " fill="#867E8D" transform="translate(174,211)"/>
<path d="M0 0 C3.88243477 1.20002529 5.10149726 1.76994441 7.4375 5.0625 C8.00935747 8.38462851 7.94982639 11.63764008 7.875 15 C7.88208984 15.89396484 7.88917969 16.78792969 7.89648438 17.70898438 C7.84930031 22.59797973 7.68106878 26.13690942 4.4375 30.0625 C1.34576248 31.60836876 -1.15679552 31.35609521 -4.5625 31.0625 C-6.75390625 29.7265625 -6.75390625 29.7265625 -8.5625 27.0625 C-9.18917264 23.41012529 -9.16579411 19.82286643 -9.125 16.125 C-9.14884766 15.13564453 -9.17269531 14.14628906 -9.19726562 13.12695312 C-9.18758791 8.33003456 -9.12675681 5.84025939 -6.25 1.875 C-3.5625 0.0625 -3.5625 0.0625 0 0 Z " fill="#622A6F" transform="translate(49.5625,334.9375)"/>
<path d="M0 0 C0.33 0 0.66 0 1 0 C1 9.57 1 19.14 1 29 C-4.28 29 -9.56 29 -15 29 C-13.57535331 24.72605992 -12.32987838 21.48418101 -10.21484375 17.63671875 C-9.41916992 16.18362305 -9.41916992 16.18362305 -8.60742188 14.70117188 C-8.05634766 13.70666016 -7.50527344 12.71214844 -6.9375 11.6875 C-6.38255859 10.67365234 -5.82761719 9.65980469 -5.25585938 8.61523438 C-1.15162295 1.15162295 -1.15162295 1.15162295 0 0 Z " fill="#A2A1A4" transform="translate(235,213)"/>
<path d="M0 0 C0.33 0 0.66 0 1 0 C1 9.57 1 19.14 1 29 C-4.28 29 -9.56 29 -15 29 C-13.57535331 24.72605992 -12.32987838 21.48418101 -10.21484375 17.63671875 C-9.41916992 16.18362305 -9.41916992 16.18362305 -8.60742188 14.70117188 C-8.05634766 13.70666016 -7.50527344 12.71214844 -6.9375 11.6875 C-6.38255859 10.67365234 -5.82761719 9.65980469 -5.25585938 8.61523438 C-1.15162295 1.15162295 -1.15162295 1.15162295 0 0 Z " fill="#A2A1A3" transform="translate(173,213)"/>
<path d="M0 0 C1.65 0 3.3 0 5 0 C5.89372793 2.0753682 6.76441696 4.16067006 7.625 6.25 C8.35589844 7.99023438 8.35589844 7.99023438 9.1015625 9.765625 C10 13 10 13 9.35546875 15.17578125 C7.86860962 17.17682798 6.34875885 19.07733211 4.6875 20.9375 C4.07261719 21.63617188 3.45773437 22.33484375 2.82421875 23.0546875 C1 25 1 25 -2 27.5625 C-4.31758514 29.88161484 -4.31758514 29.88161484 -4.09765625 33.15625 C-2.5623008 38.53272603 0.5400826 41.20108857 4.5625 44.9375 C5.27341797 45.62134766 5.98433594 46.30519531 6.71679688 47.00976562 C8.46503967 48.68760938 10.22569351 50.3498154 12 52 C11.67 52.66 11.34 53.32 11 54 C4.4 47.4 -2.2 40.8 -9 34 C-6.99766723 29.99533447 -5.12427254 27.94714043 -1.9375 24.875 C2.68613847 20.67952085 2.68613847 20.67952085 4.3125 14.9375 C3.96872522 10.60593779 2.78066834 7.76238996 0.875 3.91796875 C0 2 0 2 0 0 Z " fill="#9D9A9F" transform="translate(329,151)"/>
<path d="M0 0 C1.65 0 3.3 0 5 0 C5 9.57 5 19.14 5 29 C3.35 29 1.7 29 0 29 C0 19.43 0 9.86 0 0 Z " fill="#A2A2A4" transform="translate(302,114)"/>
<path d="M0 0 C6.27 0 12.54 0 19 0 C19 9.9 19 19.8 19 30 C17.68 30 16.36 30 15 30 C15 20.43 15 10.86 15 1 C10.05 1 5.1 1 0 1 C0 0.67 0 0.34 0 0 Z " fill="#796C83" transform="translate(473,112)"/>
<path d="M0 0 C0 6.6 0 13.2 0 20 C-9.9 20 -19.8 20 -30 20 C-30 19.67 -30 19.34 -30 19 C-21.75 19 -13.5 19 -5 19 C-5 13.06 -5 7.12 -5 1 C-3 0 -3 0 0 0 Z " fill="#766581" transform="translate(412,203)"/>
<path d="M0 0 C2 0 2 0 3.61328125 1.21484375 C5.44915269 3.07603756 6.81243868 4.66360218 8 7 C7.73551429 10.31208246 6.37116544 13.00430158 5 16 C4.41840473 17.68101441 3.85501529 19.3684694 3.3125 21.0625 C2.875 22.375 2.4375 23.6875 2 25 C0.68 25 -0.64 25 -2 25 C-1.60404002 21.1195922 -1.0360128 18.08066867 0.5625 14.5 C2.4372188 9.93546726 2.89895254 6.19119682 1 1.5625 C0.67 1.046875 0.34 0.53125 0 0 Z " fill="#9E9BA0" transform="translate(331,81)"/>
<path d="M0 0 C1.65 0 3.3 0 5 0 C5 6.27 5 12.54 5 19 C3.35 18.67 1.7 18.34 0 18 C0 12.06 0 6.12 0 0 Z " fill="#796E84" transform="translate(407,32)"/>
<path d="M0 0 C0.66 0.33 1.32 0.66 2 1 C1.67 1.33 1.34 1.66 1 2 C0.19998236 8.13346861 2.21946249 12.26412631 4.90625 17.7421875 C6 20 6 20 6 21 C4.35 21 2.7 21 1 21 C0.18395001 19.0848421 -0.62770632 17.16781166 -1.4375 15.25 C-1.88996094 14.18265625 -2.34242188 13.1153125 -2.80859375 12.015625 C-4.78922606 7.00235239 -4.78922606 7.00235239 -5 5 C-2.5625 2.25 -2.5625 2.25 0 0 Z " fill="#786C83" transform="translate(460,83)"/>
<path d="M0 0 C1.32 0.33 2.64 0.66 4 1 C4 6.94 4 12.88 4 19 C2.68 19 1.36 19 0 19 C0 12.73 0 6.46 0 0 Z " fill="#A3A3A4" transform="translate(383,203)"/>
<path d="M0 0 C1.65 0 3.3 0 5 0 C4.45859375 1.16015625 4.45859375 1.16015625 3.90625 2.34375 C1.14494866 8.54133746 -0.65333394 13.20532705 0 20 C-3.16115776 18.63016497 -3.9927092 18.0109362 -6 15 C-5.13671875 12.1875 -5.13671875 12.1875 -3.6875 9 C-3.21699219 7.948125 -2.74648438 6.89625 -2.26171875 5.8125 C-1.84535156 4.884375 -1.42898438 3.95625 -1 3 C-0.67 2.01 -0.34 1.02 0 0 Z " fill="#786C83" transform="translate(461,150)"/>
<path d="M0 0 C1.32 0 2.64 0 4 0 C4 5.94 4 11.88 4 18 C2.68 18.33 1.36 18.66 0 19 C0 12.73 0 6.46 0 0 Z " fill="#A3A3A4" transform="translate(383,32)"/>
<path d="M0 0 C0 3 0 3 -1.17749023 4.42285156 C-1.71575439 4.9072168 -2.25401855 5.39158203 -2.80859375 5.890625 C-3.68161133 6.70853516 -3.68161133 6.70853516 -4.57226562 7.54296875 C-5.80586494 8.67193818 -7.04538761 9.79447257 -8.29101562 10.91015625 C-12.37633306 14.76525138 -13.72291885 17.17419113 -14 23 C-14.33 23.66 -14.66 24.32 -15 25 C-16.32 23.68 -17.64 22.36 -19 21 C-17.54254576 17.63664406 -15.68882146 15.45465995 -13.0859375 12.890625 C-12.32539063 12.13652344 -11.56484375 11.38242187 -10.78125 10.60546875 C-9.9871875 9.82816406 -9.193125 9.05085938 -8.375 8.25 C-7.57320313 7.45722656 -6.77140625 6.66445313 -5.9453125 5.84765625 C-3.96797154 3.89385507 -1.98611091 1.94487897 0 0 Z " fill="#99939C" transform="translate(339,50)"/>
<path d="M0 0 C1.98 1.65 3.96 3.3 6 5 C4.48601545 8.78496138 3.9855604 9.0072198 0 11 C0 7.37 0 3.74 0 0 Z " fill="#766581" transform="translate(469,178)"/>
<path d="M0 0 C2.31 1.98 4.62 3.96 7 6 C5.35 7.98 3.7 9.96 2 12 C0.92922625 8.78767875 1 6.36062193 1 3 C0.67 2.01 0.34 1.02 0 0 Z " fill="#786B83" transform="translate(468,64)"/>
<path d="M0 0 C0.66 0 1.32 0 2 0 C2 2.97 2 5.94 2 9 C0.35 7.68 -1.3 6.36 -3 5 C-1.125 1.125 -1.125 1.125 0 0 Z " fill="#A1A0A3" transform="translate(323,66)"/>
</svg>
