<?xml version="1.0" encoding="UTF-8"?>
<!DOCTYPE svg PUBLIC "-//W3C//DTD SVG 1.1//EN" "http://www.w3.org/Graphics/SVG/1.1/DTD/svg11.dtd">
<!-- Creator: CorelDRAW 2021 (64-Bit) -->
<svg xmlns="http://www.w3.org/2000/svg" xml:space="preserve" width="2480px" height="3508px" version="1.1" style="shape-rendering:geometricPrecision; text-rendering:geometricPrecision; image-rendering:optimizeQuality; fill-rule:evenodd; clip-rule:evenodd"
viewBox="0 0 2480 3507.43"
 xmlns:xlink="http://www.w3.org/1999/xlink"
 xmlns:xodm="http://www.corel.com/coreldraw/odm/2003">
 <defs>
  <style type="text/css">
   <![CDATA[
    .fil0 {fill:none}
    .fil1 {fill:#00ADEF}
    .fil2 {fill:#011B43}
    .fil3 {fill:black;fill-rule:nonzero}
   ]]>
  </style>
 </defs>
 <g id="Layer_x0020_1">
  <metadata id="CorelCorpID_0Corel-Layer"/>
  <rect class="fil0" x="1164.17" y="1694.28" width="149.98" height="118.98"/>
  <path class="fil1" d="M1199.84 1735.92l-0.04 27.3 22.37 -0.12 0.32 -24.84c0.93,0.99 6.72,8.91 7.89,10.53 0.55,0.77 7.33,10.08 7.86,10.51 0.38,-0.35 0.65,-0.83 0.95,-1.23 0.41,-0.55 0.65,-0.82 1.02,-1.34 0.65,-0.89 1.3,-1.79 1.99,-2.73l9.91 -13.37c0.68,-0.94 1.25,-1.75 1.95,-2.62l0.07 25.25 22.44 -0.04c0.11,-1.54 -0.04,-3.56 -0.05,-5.16l-0.02 -26.73c0.03,-3.42 -0.21,-7.47 0.02,-10.79 1.28,0.59 2.61,1.52 3.92,2.25 1.17,0.66 0.7,0.7 1.24,1.9 2.05,4.55 7.94,4.49 10.27,1.53 3.68,-4.66 -0.3,-11.22 -5.97,-10.06 -1.98,0.41 -2.91,1.43 -3.86,2.58 -1.25,-0.04 -4.3,-1.07 -5.66,-1.41l0.02 -13.01 -21.44 0.14c-0.24,0.42 -0.69,0.88 -1,1.31 -0.38,0.52 -0.68,0.9 -1.06,1.45 -0.41,0.58 -0.58,0.9 -1.01,1.51 -0.39,0.54 -0.69,0.82 -1.14,1.37 -2.03,2.48 -11.46,16.32 -12.74,17.23 -0.88,-0.4 -1.17,-1.02 -1.77,-1.95 -2.45,-3.79 -5.96,-7.94 -8.13,-11.21 -0.99,-1.5 -2.17,-3.05 -3.26,-4.44 -1.15,-1.44 -2,-3.12 -3.15,-4.55 -0.96,-1.18 -0.92,-0.9 -2.87,-0.86 -1.25,0.03 -2.53,0.07 -3.78,0.08 -5.16,0.02 -10.28,-0.1 -15.42,-0.13 -0.37,7.3 -0.27,14.25 -0.25,21.56 0,1.71 0.08,3.67 -0.01,5.36 -0.04,0.86 0.09,0.47 -1.05,1.66l-2.88 2.62c-2.3,1.7 -2.28,-1.2 -6.33,0.11 -6.43,2.09 -5.25,11.56 1.39,12.02 3.35,0.23 5.75,-1.96 6.44,-4.49 0.6,-2.21 -0.48,-3.81 -0.22,-4.77 0.35,-1.33 1.76,-1.92 3.04,-2.42zm59.59 -17.52c-0.55,1.08 -3.39,3.54 -4.45,4.66 -1.51,1.59 -2.91,3.14 -4.44,4.68l-9.15 9.24c-3.25,-0.96 -2.17,-1.31 -6.14,-0.19l-7 -6.94c-2.38,-2.41 -4.67,-4.72 -7.01,-7.17 0.2,-1.18 1.53,-3.3 -0.26,-6.17 -3.22,-5.18 -10.72,-2.99 -11.35,2.4 -0.19,1.63 0.2,2.14 0.48,3.46l-8.99 8.17c-1.54,1.55 -1.27,0.73 -1.17,4.51 0.99,-0.38 7.59,-6.82 8.8,-7.89 0.52,-0.46 1.04,-0.83 1.51,-1.33 0.6,-0.64 0.98,-0.89 1.42,-1.39 1.28,0.6 1.7,1.3 3.76,1.4 2.03,0.1 2.65,-0.55 3.98,-1.2 0.49,0.55 1.24,1.31 1.84,1.82 0.77,0.67 1.11,1.33 1.8,1.97 1.66,1.56 3.56,4.11 5.5,5.82l3.79 3.76c0.95,1.03 0.23,1.25 -0.13,2.55 -1.22,4.41 2.41,8.46 6.81,7.78 2.11,-0.33 3.74,-1.65 4.49,-3.09 1.23,-2.38 0.86,-3.83 -0.01,-6.06l18.44 -18.47c3.4,1.5 6.88,0.03 7.85,-2.17 3.44,0 4.43,1.14 6.14,1.45l0.14 -2.51c-1.29,-0.62 -3.86,-1.17 -5.18,-1.68 -0.13,-4.82 -3.83,-7.45 -7.75,-6.44 -3.44,0.88 -6.03,5.07 -3.72,9.03z"/>
  <path class="fil2" d="M1297.04 1790.4c2.77,0 6.83,0.33 9.17,-0.64 2.16,-0.89 3.89,-2.9 3.9,-5.96 0.03,-7.83 -8.46,-6.7 -13.07,-6.7l0 13.3zm2.47 -2.12c4.09,0.38 8.09,-0.14 8.11,-4.48 0.02,-4.64 -4.73,-5.09 -8.11,-4.55l0 9.03z"/>
  <path class="fil2" d="M1214.13 1790.35l2.46 0.06 0.01 -3.88 3.44 -0.01c0.86,0.72 2.23,3.55 2.99,3.88l2.4 0c-0.86,-1.47 -2.03,-2.95 -2.96,-4.34 0.85,-0.55 0.98,-0.48 1.65,-1.18 2.2,-2.3 1.58,-7.55 -4.23,-7.77 -1.6,-0.06 -4.18,-0.12 -5.72,0.02l-0.04 13.22zm2.46 -5.87c1.76,0.04 4.34,0.25 5.42,-0.76 0.67,-0.62 1.01,-1.83 0.58,-2.94 -0.76,-1.96 -3.81,-1.64 -6,-1.58l0 5.28z"/>
  <path class="fil2" d="M1255.33 1790.34l2.35 0.07 0.01 -8.59c0.79,1.38 3.93,6 4.29,7.06l1 0c0.77,-0.49 3.57,-6.02 4.54,-7.16l0.03 8.67 2.33 0.01 -0.02 -13.28 -1.97 -0.02c-0.69,0.82 -1.94,3.18 -2.59,4.3l-2.64 4.39 -5.33 -8.71 -1.96 0.03 -0.04 13.23z"/>
  <path class="fil2" d="M1168.2 1790.34l2.36 0.07 0 -8.59c0.8,1.38 3.94,6 4.29,7.06l1 0c0.78,-0.49 3.58,-6.02 4.54,-7.16l0.04 8.67 2.33 0.01 -0.02 -13.28 -1.97 -0.02c-0.7,0.82 -1.95,3.18 -2.6,4.3 -0.47,0.82 -0.8,1.41 -1.28,2.18 -0.44,0.72 -0.81,1.55 -1.35,2.21l-5.34 -8.71 -1.96 0.03 -0.04 13.23z"/>
  <path class="fil2" d="M1280.92 1790.38l2.45 0.01 0 -8.84c0.57,0.37 7.16,8.61 7.28,8.84l2.09 0.02 0 -13.31 -2.45 0 0 8.88c-0.42,-0.26 -5.42,-6.56 -6.16,-7.45 -1.18,-1.42 -0.76,-1.48 -3.15,-1.42l-0.06 13.27z"/>
  <path class="fil2" d="M1185.2 1790.39c4.06,0.01 1.93,0.22 3.91,-3.07l6.53 0c0.42,0.63 0.99,2.74 1.6,3.08l2.34 -0.01 -5.98 -13.31 -2.4 0.03 -6 13.28zm4.73 -5.08l4.92 0.08 -2.42 -5.68 -2.5 5.6z"/>
  <path class="fil2" d="M1238.78 1783.64l-4.82 6.69 2.8 0.08c0.32,-0.66 1.21,-1.84 1.7,-2.51 0.67,-0.91 1.13,-1.62 1.75,-2.49 0.95,0.71 3.1,4.67 3.89,4.99l2.59 0c-0.96,-1.68 -4.54,-5.98 -4.91,-6.96 0.57,-0.67 4.39,-5.92 4.5,-6.34 -3.12,0.01 -2.26,-0.51 -4.2,2.31 -0.52,0.75 -1.12,1.79 -1.75,2.31 -0.83,-0.82 -2.37,-3.44 -3.39,-4.6l-2.68 -0.02c0.4,0.89 1.56,2.27 2.2,3.18 0.75,1.08 1.71,2.24 2.32,3.36z"/>
  <polygon class="fil2" points="1200.27,1779.16 1204.68,1779.19 1204.68,1790.36 1206.99,1790.41 1207.14,1790.4 1207.14,1779.19 1211.5,1779.19 1211.54,1777.1 1200.32,1777.1 "/>
  <polygon class="fil2" points="1228.75,1790.34 1231.22,1790.41 1231.21,1777.1 1228.79,1777.11 "/>
  <polygon class="fil2" points="1274.16,1790.38 1276.63,1790.4 1276.62,1777.12 1274.22,1777.1 "/>
  <polygon class="fil3" points="1207.1,1803.19 1207.1,1797.29 1207.89,1797.29 1207.89,1803.19 "/>
  <polygon id="_1" class="fil3" points="1212.59,1803.19 1212.59,1797.29 1213.4,1797.29 1216.49,1801.92 1216.49,1797.29 1217.24,1797.29 1217.24,1803.19 1216.44,1803.19 1213.34,1798.56 1213.34,1803.19 "/>
  <polygon id="_2" class="fil3" points="1221.94,1803.19 1221.94,1797.29 1225.92,1797.29 1225.92,1797.98 1222.72,1797.98 1222.72,1799.82 1225.49,1799.82 1225.49,1800.51 1222.72,1800.51 1222.72,1803.19 "/>
  <path id="_3" class="fil3" d="M1230.03 1800.32c0,-0.98 0.27,-1.75 0.79,-2.3 0.53,-0.55 1.21,-0.83 2.04,-0.83 0.55,0 1.04,0.13 1.48,0.39 0.43,0.26 0.77,0.62 1,1.09 0.23,0.46 0.34,0.99 0.34,1.58 0,0.6 -0.12,1.13 -0.36,1.6 -0.24,0.48 -0.58,0.83 -1.03,1.08 -0.44,0.24 -0.92,0.36 -1.43,0.36 -0.56,0 -1.05,-0.13 -1.49,-0.4 -0.44,-0.27 -0.77,-0.64 -1,-1.1 -0.22,-0.46 -0.34,-0.95 -0.34,-1.47zm0.81 0.01c0,0.71 0.19,1.27 0.57,1.68 0.39,0.41 0.87,0.61 1.44,0.61 0.59,0 1.08,-0.2 1.46,-0.62 0.37,-0.41 0.56,-0.99 0.56,-1.75 0,-0.48 -0.08,-0.9 -0.24,-1.26 -0.16,-0.36 -0.4,-0.63 -0.71,-0.83 -0.31,-0.2 -0.66,-0.3 -1.05,-0.3 -0.56,0 -1.03,0.19 -1.43,0.57 -0.4,0.38 -0.6,1.02 -0.6,1.9z"/>
  <polygon id="_4" class="fil3" points="1241.53,1803.19 1241.53,1797.98 1239.58,1797.98 1239.58,1797.29 1244.26,1797.29 1244.26,1797.98 1242.31,1797.98 1242.31,1803.19 "/>
  <polygon id="_5" class="fil3" points="1248.42,1803.19 1248.42,1797.29 1252.68,1797.29 1252.68,1797.98 1249.2,1797.98 1249.2,1799.8 1252.46,1799.8 1252.46,1800.49 1249.2,1800.49 1249.2,1802.5 1252.82,1802.5 1252.82,1803.19 "/>
  <path id="_6" class="fil3" d="M1261.45 1801.12l0.78 0.2c-0.16,0.64 -0.46,1.13 -0.88,1.47 -0.43,0.33 -0.95,0.5 -1.56,0.5 -0.63,0 -1.15,-0.13 -1.55,-0.39 -0.4,-0.26 -0.7,-0.63 -0.91,-1.12 -0.21,-0.49 -0.31,-1.02 -0.31,-1.58 0,-0.62 0.12,-1.15 0.35,-1.61 0.24,-0.46 0.57,-0.81 1,-1.05 0.44,-0.23 0.91,-0.35 1.43,-0.35 0.59,0 1.09,0.15 1.49,0.45 0.4,0.3 0.68,0.72 0.84,1.27l-0.76 0.18c-0.14,-0.43 -0.34,-0.74 -0.6,-0.94 -0.26,-0.2 -0.59,-0.29 -0.98,-0.29 -0.45,0 -0.83,0.1 -1.14,0.32 -0.3,0.22 -0.52,0.51 -0.64,0.88 -0.12,0.36 -0.18,0.74 -0.18,1.13 0,0.5 0.07,0.94 0.22,1.32 0.14,0.37 0.37,0.65 0.68,0.84 0.3,0.18 0.64,0.27 1,0.27 0.43,0 0.8,-0.12 1.1,-0.37 0.31,-0.26 0.51,-0.63 0.62,-1.13z"/>
  <polygon id="_7" class="fil3" points="1266.57,1803.19 1266.57,1797.29 1267.35,1797.29 1267.35,1799.72 1270.4,1799.72 1270.4,1797.29 1271.19,1797.29 1271.19,1803.19 1270.4,1803.19 1270.4,1800.41 1267.35,1800.41 1267.35,1803.19 "/>
 </g>
</svg>
